ffmpeg started on 2025-03-25 at 15:30:48
Report written to "D:\Convert\FFMetrics\reports\vmaf_report-6.txt"
Log level: 32
Command line:
ffmpeg -hide_banner -nostdin -r 24000/1001 -i "G:\\\xc0\xed\xe8\xec\xe5\\\xce\xed\xe3\xee\xe8\xed\xe3\xe8\\!_35_\xcb\xe5\xf2\xee_2024\\DreamCast\\\xc0\xeb\xff \xe8\xed\xee\xe3\xe4\xe0 \xea\xee\xea\xe5\xf2\xed\xe8\xf7\xe0\xe5\xf2 \xf1\xee \xec\xed\xee\xe9 \xef\xee-\xf0\xf3\xf1\xf1\xea\xe8\\[DC] Roshidere - 07_Telegram_HEVC.mkv" -r 24000/1001 -i "G:\\\xc0\xed\xe8\xec\xe5\\\xce\xed\xe3\xee\xe8\xed\xe3\xe8\\!_35_\xcb\xe5\xf2\xee_2024\\DreamCast\\\xc0\xeb\xff \xe8\xed\xee\xe3\xe4\xe0 \xea\xee\xea\xe5\xf2\xed\xe8\xf7\xe0\xe5\xf2 \xf1\xee \xec\xed\xee\xe9 \xef\xee-\xf0\xf3\xf1\xf1\xea\xe8\\[DC] Roshidere - 07_Telegram.mp4" -lavfi "[0:v]settb=AVTB,setpts=PTS-STARTPTS,format=pix_fmts=yuv420p10,fps=24000/1001,scale=1920:1080:flags=bicubic[main];[1:v]settb=AVTB,setpts=PTS-STARTPTS,format=pix_fmts=yuv420p,fps=24000/1001,scale=1920:1080:flags=bicubic[ref];[main][ref]libvmaf=eof_action=endall:log_path='D\\:/Convert/FFMetrics/logs/vmaf_logfile-6.txt':n_threads=32:pool=Mean:model=version=vmaf_v0.6.1" -f null -
Input #0, matroska,webm, from 'G:\Аниме\Онгоинги\!_35_Лето_2024\DreamCast\Аля иногда кокетничает со мной по-русски\[DC] Roshidere - 07_Telegram_HEVC.mkv':
  Metadata:
    COMPATIBLE_BRANDS: isomiso2avc1mp41
    MAJOR_BRAND     : isom
    MINOR_VERSION   : 512
    ENCODER         : Lavf61.7.100
  Duration: 00:24:46.68, start: -0.021000, bitrate: 802 kb/s
  Stream #0:0: Video: hevc (Main 10), yuv420p10le(tv, bt709, progressive), 1920x1080 [SAR 1:1 DAR 16:9], 23.98 fps, 23.98 tbr, 1k tbn (default)
      Metadata:
        HANDLER_NAME    : VideoHandler
        VENDOR_ID       : [0][0][0][0]
        ENCODER         : Lavc61.19.100 libx265
        BPS             : 604849
        DURATION        : 00:24:46.443708333
        NUMBER_OF_FRAMES: 35639
        NUMBER_OF_BYTES : 112384231
        _STATISTICS_WRITING_APP: mkvpropedit v66.0.0 ('Josie') 64-bit
        _STATISTICS_WRITING_DATE_UTC: 2025-03-21 10:41:57
        _STATISTICS_TAGS: BPS DURATION NUMBER_OF_FRAMES NUMBER_OF_BYTES
  Stream #0:1: Audio: aac (LC), 48000 Hz, stereo, fltp (default)
      Metadata:
        HANDLER_NAME    : SoundHandler
        VENDOR_ID       : [0][0][0][0]
        ENCODER         : Lavc61.19.100 aac
        BPS             : 193373
        DURATION        : 00:24:46.677000000
        NUMBER_OF_FRAMES: 69689
        NUMBER_OF_BYTES : 35935533
        _STATISTICS_WRITING_APP: mkvpropedit v66.0.0 ('Josie') 64-bit
        _STATISTICS_WRITING_DATE_UTC: 2025-03-21 10:41:57
        _STATISTICS_TAGS: BPS DURATION NUMBER_OF_FRAMES NUMBER_OF_BYTES
Input #1, mov,mp4,m4a,3gp,3g2,mj2, from 'G:\Аниме\Онгоинги\!_35_Лето_2024\DreamCast\Аля иногда кокетничает со мной по-русски\[DC] Roshidere - 07_Telegram.mp4':
  Metadata:
    major_brand     : isom
    minor_version   : 512
    compatible_brands: isomiso2avc1mp41
    encoder         : Lavf61.1.100
  Duration: 00:24:46.63, start: 0.000000, bitrate: 3654 kb/s
  Stream #1:0[0x1](und): Video: h264 (High) (avc1 / 0x31637661), yuv420p(tv, bt709, progressive), 1920x1080 [SAR 1:1 DAR 16:9], 3506 kb/s, 23.98 fps, 23.98 tbr, 24k tbn (default)
      Metadata:
        handler_name    : VideoHandler
        vendor_id       : [0][0][0][0]
        encoder         : Lavc61.3.100 h264_qsv
  Stream #1:1[0x2](und): Audio: aac (HE-AACv2) (mp4a / 0x6134706D), 48000 Hz, stereo, fltp, 144 kb/s (default)
      Metadata:
        handler_name    : SoundHandler
        vendor_id       : [0][0][0][0]
Stream mapping:
  Stream #0:0 (hevc) -> settb:default
  Stream #1:0 (h264) -> settb:default
  libvmaf:default -> Stream #0:0 (wrapped_avframe)
  Stream #0:1 -> #0:1 (aac (native) -> pcm_s16le (native))
Output #0, null, to 'pipe:':
  Metadata:
    COMPATIBLE_BRANDS: isomiso2avc1mp41
    MAJOR_BRAND     : isom
    MINOR_VERSION   : 512
    encoder         : Lavf61.7.100
  Stream #0:0: Video: wrapped_avframe, yuv420p10le(tv, bt709, progressive), 1920x1080 [SAR 1:1 DAR 16:9], q=2-31, 200 kb/s, 23.98 fps, 23.98 tbn
      Metadata:
        encoder         : Lavc61.19.100 wrapped_avframe
  Stream #0:1: Audio: pcm_s16le, 48000 Hz, stereo, s16, 1536 kb/s (default)
      Metadata:
        HANDLER_NAME    : SoundHandler
        VENDOR_ID       : [0][0][0][0]
        _STATISTICS_TAGS: BPS DURATION NUMBER_OF_FRAMES NUMBER_OF_BYTES
        BPS             : 193373
        DURATION        : 00:24:46.677000000
        NUMBER_OF_FRAMES: 69689
        NUMBER_OF_BYTES : 35935533
        _STATISTICS_WRITING_APP: mkvpropedit v66.0.0 ('Josie') 64-bit
        _STATISTICS_WRITING_DATE_UTC: 2025-03-21 10:41:57
        encoder         : Lavc61.19.100 pcm_s16le
frame=   36 fps=0.0 q=-0.0 size=N/A time=00:00:01.50 bitrate=N/A speed=2.97x    frame=   81 fps= 80 q=-0.0 size=N/A time=00:00:03.37 bitrate=N/A speed=3.32x    frame=  128 fps= 83 q=-0.0 size=N/A time=00:00:05.33 bitrate=N/A speed=3.46x    frame=  175 fps= 85 q=-0.0 size=N/A time=00:00:07.29 bitrate=N/A speed=3.56x    frame=  218 fps= 85 q=-0.0 size=N/A time=00:00:09.09 bitrate=N/A speed=3.53x    frame=  264 fps= 85 q=-0.0 size=N/A time=00:00:11.01 bitrate=N/A speed=3.55x    frame=  311 fps= 86 q=-0.0 size=N/A time=00:00:12.97 bitrate=N/A speed=3.59x    frame=  360 fps= 87 q=-0.0 size=N/A time=00:00:15.01 bitrate=N/A speed=3.63x    frame=  407 fps= 88 q=-0.0 size=N/A time=00:00:16.97 bitrate=N/A speed=3.65x    frame=  454 fps= 88 q=-0.0 size=N/A time=00:00:18.93 bitrate=N/A speed=3.66x    frame=  501 fps= 88 q=-0.0 size=N/A time=00:00:20.89 bitrate=N/A speed=3.68x    frame=  546 fps= 88 q=-0.0 size=N/A time=00:00:22.77 bitrate=N/A speed=3.68x    frame=  593 fps= 88 q=-0.0 size=N/A time=00:00:24.73 bitrate=N/A speed=3.68x    frame=  639 fps= 88 q=-0.0 size=N/A time=00:00:26.65 bitrate=N/A speed=3.69x    frame=  685 fps= 89 q=-0.0 size=N/A time=00:00:28.57 bitrate=N/A speed=3.69x    frame=  730 fps= 88 q=-0.0 size=N/A time=00:00:30.44 bitrate=N/A speed=3.69x    frame=  774 fps= 88 q=-0.0 size=N/A time=00:00:32.28 bitrate=N/A speed=3.68x    frame=  820 fps= 88 q=-0.0 size=N/A time=00:00:34.20 bitrate=N/A speed=3.68x    frame=  863 fps= 88 q=-0.0 size=N/A time=00:00:35.99 bitrate=N/A speed=3.67x    frame=  909 fps= 88 q=-0.0 size=N/A time=00:00:37.91 bitrate=N/A speed=3.67x    frame=  953 fps= 88 q=-0.0 size=N/A time=00:00:39.74 bitrate=N/A speed=3.66x    frame=  996 fps= 88 q=-0.0 size=N/A time=00:00:41.54 bitrate=N/A speed=3.65x    frame= 1039 fps= 87 q=-0.0 size=N/A time=00:00:43.33 bitrate=N/A speed=3.65x    frame= 1083 fps= 87 q=-0.0 size=N/A time=00:00:45.17 bitrate=N/A speed=3.64x    frame= 1126 fps= 87 q=-0.0 size=N/A time=00:00:46.96 bitrate=N/A speed=3.64x    frame= 1173 fps= 87 q=-0.0 size=N/A time=00:00:48.92 bitrate=N/A speed=3.64x    frame= 1215 fps= 87 q=-0.0 size=N/A time=00:00:50.67 bitrate=N/A speed=3.63x    frame= 1257 fps= 87 q=-0.0 size=N/A time=00:00:52.42 bitrate=N/A speed=3.63x    frame= 1301 fps= 87 q=-0.0 size=N/A time=00:00:54.26 bitrate=N/A speed=3.62x    frame= 1344 fps= 87 q=-0.0 size=N/A time=00:00:56.05 bitrate=N/A speed=3.62x    frame= 1387 fps= 87 q=-0.0 size=N/A time=00:00:57.84 bitrate=N/A speed=3.61x    frame= 1432 fps= 87 q=-0.0 size=N/A time=00:00:59.72 bitrate=N/A speed=3.62x    frame= 1477 fps= 87 q=-0.0 size=N/A time=00:01:01.60 bitrate=N/A speed=3.61x    frame= 1519 fps= 87 q=-0.0 size=N/A time=00:01:03.35 bitrate=N/A speed=3.61x    frame= 1563 fps= 86 q=-0.0 size=N/A time=00:01:05.19 bitrate=N/A speed=3.61x    frame= 1606 fps= 86 q=-0.0 size=N/A time=00:01:06.98 bitrate=N/A speed= 3.6x    frame= 1650 fps= 86 q=-0.0 size=N/A time=00:01:08.81 bitrate=N/A speed= 3.6x    frame= 1695 fps= 86 q=-0.0 size=N/A time=00:01:10.69 bitrate=N/A speed= 3.6x    frame= 1739 fps= 86 q=-0.0 size=N/A time=00:01:12.53 bitrate=N/A speed= 3.6x    frame= 1784 fps= 86 q=-0.0 size=N/A time=00:01:14.40 bitrate=N/A speed= 3.6x    frame= 1829 fps= 86 q=-0.0 size=N/A time=00:01:16.28 bitrate=N/A speed= 3.6x    frame= 1872 fps= 86 q=-0.0 size=N/A time=00:01:18.07 bitrate=N/A speed= 3.6x    frame= 1916 fps= 86 q=-0.0 size=N/A time=00:01:19.91 bitrate=N/A speed= 3.6x    frame= 1961 fps= 86 q=-0.0 size=N/A time=00:01:21.79 bitrate=N/A speed= 3.6x    frame= 2004 fps= 86 q=-0.0 size=N/A time=00:01:23.58 bitrate=N/A speed= 3.6x    frame= 2051 fps= 86 q=-0.0 size=N/A time=00:01:25.54 bitrate=N/A speed= 3.6x    frame= 2093 fps= 86 q=-0.0 size=N/A time=00:01:27.29 bitrate=N/A speed= 3.6x    frame= 2138 fps= 86 q=-0.0 size=N/A time=00:01:29.17 bitrate=N/A speed= 3.6x    frame= 2182 fps= 86 q=-0.0 size=N/A time=00:01:31.00 bitrate=N/A speed= 3.6x    frame= 2229 fps= 86 q=-0.0 size=N/A time=00:01:32.96 bitrate=N/A speed= 3.6x    frame= 2274 fps= 86 q=-0.0 size=N/A time=00:01:34.84 bitrate=N/A speed= 3.6x    frame= 2317 fps= 86 q=-0.0 size=N/A time=00:01:36.63 bitrate=N/A speed= 3.6x    frame= 2359 fps= 86 q=-0.0 size=N/A time=00:01:38.38 bitrate=N/A speed= 3.6x    frame= 2402 fps= 86 q=-0.0 size=N/A time=00:01:40.18 bitrate=N/A speed=3.59x    frame= 2446 fps= 86 q=-0.0 size=N/A time=00:01:42.01 bitrate=N/A speed=3.59x    frame= 2491 fps= 86 q=-0.0 size=N/A time=00:01:43.89 bitrate=N/A speed=3.59x    frame= 2532 fps= 86 q=-0.0 size=N/A time=00:01:45.60 bitrate=N/A speed=3.59x    frame= 2577 fps= 86 q=-0.0 size=N/A time=00:01:47.48 bitrate=N/A speed=3.59x    frame= 2620 fps= 86 q=-0.0 size=N/A time=00:01:49.27 bitrate=N/A speed=3.59x    frame= 2665 fps= 86 q=-0.0 size=N/A time=00:01:51.15 bitrate=N/A speed=3.59x    frame= 2710 fps= 86 q=-0.0 size=N/A time=00:01:53.02 bitrate=N/A speed=3.59x    frame= 2754 fps= 86 q=-0.0 size=N/A time=00:01:54.86 bitrate=N/A speed=3.59x    frame= 2797 fps= 86 q=-0.0 size=N/A time=00:01:56.65 bitrate=N/A speed=3.59x    frame= 2842 fps= 86 q=-0.0 size=N/A time=00:01:58.53 bitrate=N/A speed=3.59x    frame= 2887 fps= 86 q=-0.0 size=N/A time=00:02:00.41 bitrate=N/A speed=3.59x    frame= 2931 fps= 86 q=-0.0 size=N/A time=00:02:02.24 bitrate=N/A speed=3.59x    frame= 2973 fps= 86 q=-0.0 size=N/A time=00:02:03.99 bitrate=N/A speed=3.59x    frame= 3020 fps= 86 q=-0.0 size=N/A time=00:02:05.95 bitrate=N/A speed=3.59x    frame= 3065 fps= 86 q=-0.0 size=N/A time=00:02:07.83 bitrate=N/A speed=3.59x    frame= 3111 fps= 86 q=-0.0 size=N/A time=00:02:09.75 bitrate=N/A speed=3.59x    frame= 3155 fps= 86 q=-0.0 size=N/A time=00:02:11.58 bitrate=N/A speed=3.59x    frame= 3200 fps= 86 q=-0.0 size=N/A time=00:02:13.46 bitrate=N/A speed=3.59x    frame= 3245 fps= 86 q=-0.0 size=N/A time=00:02:15.34 bitrate=N/A speed=3.59x    frame= 3289 fps= 86 q=-0.0 size=N/A time=00:02:17.17 bitrate=N/A speed=3.59x    frame= 3331 fps= 86 q=-0.0 size=N/A time=00:02:18.93 bitrate=N/A speed=3.59x    frame= 3377 fps= 86 q=-0.0 size=N/A time=00:02:20.84 bitrate=N/A speed=3.59x    frame= 3423 fps= 86 q=-0.0 size=N/A time=00:02:22.76 bitrate=N/A speed=3.59x    frame= 3466 fps= 86 q=-0.0 size=N/A time=00:02:24.56 bitrate=N/A speed=3.59x    frame= 3511 fps= 86 q=-0.0 size=N/A time=00:02:26.43 bitrate=N/A speed=3.59x    frame= 3555 fps= 86 q=-0.0 size=N/A time=00:02:28.27 bitrate=N/A speed=3.59x    frame= 3599 fps= 86 q=-0.0 size=N/A time=00:02:30.10 bitrate=N/A speed=3.59x    frame= 3643 fps= 86 q=-0.0 size=N/A time=00:02:31.94 bitrate=N/A speed=3.59x    frame= 3688 fps= 86 q=-0.0 size=N/A time=00:02:33.82 bitrate=N/A speed=3.59x    frame= 3733 fps= 86 q=-0.0 size=N/A time=00:02:35.69 bitrate=N/A speed=3.59x    frame= 3777 fps= 86 q=-0.0 size=N/A time=00:02:37.53 bitrate=N/A speed=3.59x    frame= 3823 fps= 86 q=-0.0 size=N/A time=00:02:39.45 bitrate=N/A speed=3.59x    frame= 3866 fps= 86 q=-0.0 size=N/A time=00:02:41.24 bitrate=N/A speed=3.59x    frame= 3911 fps= 86 q=-0.0 size=N/A time=00:02:43.12 bitrate=N/A speed=3.59x    frame= 3954 fps= 86 q=-0.0 size=N/A time=00:02:44.91 bitrate=N/A speed=3.59x    frame= 3998 fps= 86 q=-0.0 size=N/A time=00:02:46.74 bitrate=N/A speed=3.59x    frame= 4042 fps= 86 q=-0.0 size=N/A time=00:02:48.58 bitrate=N/A speed=3.59x    frame= 4085 fps= 86 q=-0.0 size=N/A time=00:02:50.37 bitrate=N/A speed=3.59x    frame= 4130 fps= 86 q=-0.0 size=N/A time=00:02:52.25 bitrate=N/A speed=3.59x    frame= 4175 fps= 86 q=-0.0 size=N/A time=00:02:54.13 bitrate=N/A speed=3.59x    frame= 4221 fps= 86 q=-0.0 size=N/A time=00:02:56.05 bitrate=N/A speed=3.59x    frame= 4267 fps= 86 q=-0.0 size=N/A time=00:02:57.96 bitrate=N/A speed=3.59x    frame= 4312 fps= 86 q=-0.0 size=N/A time=00:02:59.84 bitrate=N/A speed=3.59x    frame= 4356 fps= 86 q=-0.0 size=N/A time=00:03:01.68 bitrate=N/A speed=3.59x    frame= 4401 fps= 86 q=-0.0 size=N/A time=00:03:03.55 bitrate=N/A speed=3.59x    frame= 4444 fps= 86 q=-0.0 size=N/A time=00:03:05.35 bitrate=N/A speed=3.59x    frame= 4488 fps= 86 q=-0.0 size=N/A time=00:03:07.18 bitrate=N/A speed=3.59x    frame= 4532 fps= 86 q=-0.0 size=N/A time=00:03:09.02 bitrate=N/A speed=3.59x    frame= 4577 fps= 86 q=-0.0 size=N/A time=00:03:10.89 bitrate=N/A speed=3.59x    frame= 4621 fps= 86 q=-0.0 size=N/A time=00:03:12.73 bitrate=N/A speed=3.59x    frame= 4663 fps= 86 q=-0.0 size=N/A time=00:03:14.48 bitrate=N/A speed=3.59x    frame= 4706 fps= 86 q=-0.0 size=N/A time=00:03:16.27 bitrate=N/A speed=3.59x    frame= 4751 fps= 86 q=-0.0 size=N/A time=00:03:18.15 bitrate=N/A speed=3.59x    frame= 4795 fps= 86 q=-0.0 size=N/A time=00:03:19.99 bitrate=N/A speed=3.59x    frame= 4839 fps= 86 q=-0.0 size=N/A time=00:03:21.82 bitrate=N/A speed=3.59x    frame= 4884 fps= 86 q=-0.0 size=N/A time=00:03:23.70 bitrate=N/A speed=3.59x    frame= 4926 fps= 86 q=-0.0 size=N/A time=00:03:25.45 bitrate=N/A speed=3.59x    frame= 4973 fps= 86 q=-0.0 size=N/A time=00:03:27.41 bitrate=N/A speed=3.59x    frame= 5015 fps= 86 q=-0.0 size=N/A time=00:03:29.16 bitrate=N/A speed=3.59x    frame= 5060 fps= 86 q=-0.0 size=N/A time=00:03:31.04 bitrate=N/A speed=3.59x    frame= 5105 fps= 86 q=-0.0 size=N/A time=00:03:32.92 bitrate=N/A speed=3.59x    frame= 5150 fps= 86 q=-0.0 size=N/A time=00:03:34.79 bitrate=N/A speed=3.59x    frame= 5194 fps= 86 q=-0.0 size=N/A time=00:03:36.63 bitrate=N/A speed=3.59x    frame= 5238 fps= 86 q=-0.0 size=N/A time=00:03:38.46 bitrate=N/A speed=3.59x    frame= 5278 fps= 86 q=-0.0 size=N/A time=00:03:40.13 bitrate=N/A speed=3.59x    frame= 5321 fps= 86 q=-0.0 size=N/A time=00:03:41.93 bitrate=N/A speed=3.58x    frame= 5362 fps= 86 q=-0.0 size=N/A time=00:03:43.64 bitrate=N/A speed=3.58x    frame= 5405 fps= 86 q=-0.0 size=N/A time=00:03:45.43 bitrate=N/A speed=3.58x    frame= 5449 fps= 86 q=-0.0 size=N/A time=00:03:47.26 bitrate=N/A speed=3.58x    frame= 5494 fps= 86 q=-0.0 size=N/A time=00:03:49.14 bitrate=N/A speed=3.58x    frame= 5539 fps= 86 q=-0.0 size=N/A time=00:03:51.02 bitrate=N/A speed=3.58x    frame= 5582 fps= 86 q=-0.0 size=N/A time=00:03:52.81 bitrate=N/A speed=3.58x    frame= 5625 fps= 86 q=-0.0 size=N/A time=00:03:54.60 bitrate=N/A speed=3.58x    frame= 5669 fps= 86 q=-0.0 size=N/A time=00:03:56.44 bitrate=N/A speed=3.58x    frame= 5714 fps= 86 q=-0.0 size=N/A time=00:03:58.32 bitrate=N/A speed=3.58x    frame= 5760 fps= 86 q=-0.0 size=N/A time=00:04:00.24 bitrate=N/A speed=3.58x    frame= 5803 fps= 86 q=-0.0 size=N/A time=00:04:02.03 bitrate=N/A speed=3.58x    frame= 5848 fps= 86 q=-0.0 size=N/A time=00:04:03.91 bitrate=N/A speed=3.58x    frame= 5891 fps= 86 q=-0.0 size=N/A time=00:04:05.70 bitrate=N/A speed=3.58x    frame= 5934 fps= 86 q=-0.0 size=N/A time=00:04:07.49 bitrate=N/A speed=3.58x    frame= 5980 fps= 86 q=-0.0 size=N/A time=00:04:09.41 bitrate=N/A speed=3.58x    frame= 6026 fps= 86 q=-0.0 size=N/A time=00:04:11.33 bitrate=N/A speed=3.58x    frame= 6068 fps= 86 q=-0.0 size=N/A time=00:04:13.08 bitrate=N/A speed=3.58x    frame= 6115 fps= 86 q=-0.0 size=N/A time=00:04:15.04 bitrate=N/A speed=3.58x    frame= 6157 fps= 86 q=-0.0 size=N/A time=00:04:16.79 bitrate=N/A speed=3.58x    frame= 6201 fps= 86 q=-0.0 size=N/A time=00:04:18.63 bitrate=N/A speed=3.58x    frame= 6247 fps= 86 q=-0.0 size=N/A time=00:04:20.55 bitrate=N/A speed=3.58x    frame= 6292 fps= 86 q=-0.0 size=N/A time=00:04:22.42 bitrate=N/A speed=3.58x    frame= 6337 fps= 86 q=-0.0 size=N/A time=00:04:24.30 bitrate=N/A speed=3.58x    frame= 6381 fps= 86 q=-0.0 size=N/A time=00:04:26.14 bitrate=N/A speed=3.58x    frame= 6424 fps= 86 q=-0.0 size=N/A time=00:04:27.93 bitrate=N/A speed=3.58x    frame= 6466 fps= 86 q=-0.0 size=N/A time=00:04:29.68 bitrate=N/A speed=3.58x    frame= 6510 fps= 86 q=-0.0 size=N/A time=00:04:31.52 bitrate=N/A speed=3.58x    frame= 6554 fps= 86 q=-0.0 size=N/A time=00:04:33.35 bitrate=N/A speed=3.58x    frame= 6597 fps= 86 q=-0.0 size=N/A time=00:04:35.14 bitrate=N/A speed=3.58x    frame= 6643 fps= 86 q=-0.0 size=N/A time=00:04:37.06 bitrate=N/A speed=3.58x    frame= 6689 fps= 86 q=-0.0 size=N/A time=00:04:38.98 bitrate=N/A speed=3.58x    frame= 6734 fps= 86 q=-0.0 size=N/A time=00:04:40.86 bitrate=N/A speed=3.58x    frame= 6780 fps= 86 q=-0.0 size=N/A time=00:04:42.78 bitrate=N/A speed=3.58x    frame= 6824 fps= 86 q=-0.0 size=N/A time=00:04:44.61 bitrate=N/A speed=3.58x    frame= 6868 fps= 86 q=-0.0 size=N/A time=00:04:46.45 bitrate=N/A speed=3.58x    frame= 6912 fps= 86 q=-0.0 size=N/A time=00:04:48.28 bitrate=N/A speed=3.58x    frame= 6954 fps= 86 q=-0.0 size=N/A time=00:04:50.03 bitrate=N/A speed=3.58x    frame= 6997 fps= 86 q=-0.0 size=N/A time=00:04:51.83 bitrate=N/A speed=3.58x    frame= 7042 fps= 86 q=-0.0 size=N/A time=00:04:53.71 bitrate=N/A speed=3.58x    frame= 7085 fps= 86 q=-0.0 size=N/A time=00:04:55.50 bitrate=N/A speed=3.58x    frame= 7129 fps= 86 q=-0.0 size=N/A time=00:04:57.33 bitrate=N/A speed=3.58x    frame= 7172 fps= 86 q=-0.0 size=N/A time=00:04:59.13 bitrate=N/A speed=3.58x    frame= 7215 fps= 86 q=-0.0 size=N/A time=00:05:00.92 bitrate=N/A speed=3.58x    frame= 7259 fps= 86 q=-0.0 size=N/A time=00:05:02.76 bitrate=N/A speed=3.58x    frame= 7304 fps= 86 q=-0.0 size=N/A time=00:05:04.63 bitrate=N/A speed=3.58x    frame= 7345 fps= 86 q=-0.0 size=N/A time=00:05:06.34 bitrate=N/A speed=3.58x    frame= 7390 fps= 86 q=-0.0 size=N/A time=00:05:08.22 bitrate=N/A speed=3.58x    frame= 7433 fps= 86 q=-0.0 size=N/A time=00:05:10.01 bitrate=N/A speed=3.58x    frame= 7477 fps= 86 q=-0.0 size=N/A time=00:05:11.85 bitrate=N/A speed=3.58x    frame= 7521 fps= 86 q=-0.0 size=N/A time=00:05:13.68 bitrate=N/A speed=3.58x    frame= 7567 fps= 86 q=-0.0 size=N/A time=00:05:15.60 bitrate=N/A speed=3.58x    frame= 7608 fps= 86 q=-0.0 size=N/A time=00:05:17.31 bitrate=N/A speed=3.58x    frame= 7653 fps= 86 q=-0.0 size=N/A time=00:05:19.19 bitrate=N/A speed=3.58x    frame= 7697 fps= 86 q=-0.0 size=N/A time=00:05:21.02 bitrate=N/A speed=3.58x    frame= 7741 fps= 86 q=-0.0 size=N/A time=00:05:22.86 bitrate=N/A speed=3.58x    frame= 7784 fps= 86 q=-0.0 size=N/A time=00:05:24.65 bitrate=N/A speed=3.58x    frame= 7829 fps= 86 q=-0.0 size=N/A time=00:05:26.53 bitrate=N/A speed=3.58x    frame= 7874 fps= 86 q=-0.0 size=N/A time=00:05:28.41 bitrate=N/A speed=3.58x    frame= 7919 fps= 86 q=-0.0 size=N/A time=00:05:30.28 bitrate=N/A speed=3.58x    frame= 7960 fps= 86 q=-0.0 size=N/A time=00:05:31.99 bitrate=N/A speed=3.58x    frame= 8003 fps= 86 q=-0.0 size=N/A time=00:05:33.79 bitrate=N/A speed=3.57x    frame= 8048 fps= 86 q=-0.0 size=N/A time=00:05:35.66 bitrate=N/A speed=3.57x    frame= 8094 fps= 86 q=-0.0 size=N/A time=00:05:37.58 bitrate=N/A speed=3.58x    frame= 8137 fps= 86 q=-0.0 size=N/A time=00:05:39.38 bitrate=N/A speed=3.58x    frame= 8183 fps= 86 q=-0.0 size=N/A time=00:05:41.29 bitrate=N/A speed=3.58x    frame= 8225 fps= 86 q=-0.0 size=N/A time=00:05:43.05 bitrate=N/A speed=3.57x    frame= 8269 fps= 86 q=-0.0 size=N/A time=00:05:44.88 bitrate=N/A speed=3.57x    frame= 8313 fps= 86 q=-0.0 size=N/A time=00:05:46.72 bitrate=N/A speed=3.57x    frame= 8357 fps= 86 q=-0.0 size=N/A time=00:05:48.55 bitrate=N/A speed=3.57x    frame= 8402 fps= 86 q=-0.0 size=N/A time=00:05:50.43 bitrate=N/A speed=3.57x    frame= 8446 fps= 86 q=-0.0 size=N/A time=00:05:52.26 bitrate=N/A speed=3.58x    frame= 8493 fps= 86 q=-0.0 size=N/A time=00:05:54.22 bitrate=N/A speed=3.58x    frame= 8537 fps= 86 q=-0.0 size=N/A time=00:05:56.06 bitrate=N/A speed=3.58x    frame= 8581 fps= 86 q=-0.0 size=N/A time=00:05:57.89 bitrate=N/A speed=3.58x    frame= 8624 fps= 86 q=-0.0 size=N/A time=00:05:59.69 bitrate=N/A speed=3.58x    frame= 8669 fps= 86 q=-0.0 size=N/A time=00:06:01.56 bitrate=N/A speed=3.58x    frame= 8713 fps= 86 q=-0.0 size=N/A time=00:06:03.40 bitrate=N/A speed=3.58x    frame= 8759 fps= 86 q=-0.0 size=N/A time=00:06:05.32 bitrate=N/A speed=3.58x    frame= 8802 fps= 86 q=-0.0 size=N/A time=00:06:07.11 bitrate=N/A speed=3.58x    frame= 8845 fps= 86 q=-0.0 size=N/A time=00:06:08.91 bitrate=N/A speed=3.58x    frame= 8887 fps= 86 q=-0.0 size=N/A time=00:06:10.66 bitrate=N/A speed=3.57x    frame= 8931 fps= 86 q=-0.0 size=N/A time=00:06:12.49 bitrate=N/A speed=3.57x    frame= 8972 fps= 86 q=-0.0 size=N/A time=00:06:14.20 bitrate=N/A speed=3.57x    frame= 9016 fps= 86 q=-0.0 size=N/A time=00:06:16.04 bitrate=N/A speed=3.57x    frame= 9061 fps= 86 q=-0.0 size=N/A time=00:06:17.91 bitrate=N/A speed=3.57x    frame= 9105 fps= 86 q=-0.0 size=N/A time=00:06:19.75 bitrate=N/A speed=3.57x    frame= 9149 fps= 86 q=-0.0 size=N/A time=00:06:21.58 bitrate=N/A speed=3.57x    frame= 9194 fps= 86 q=-0.0 size=N/A time=00:06:23.46 bitrate=N/A speed=3.57x    frame= 9238 fps= 86 q=-0.0 size=N/A time=00:06:25.30 bitrate=N/A speed=3.57x    frame= 9283 fps= 86 q=-0.0 size=N/A time=00:06:27.17 bitrate=N/A speed=3.57x    frame= 9326 fps= 86 q=-0.0 size=N/A time=00:06:28.97 bitrate=N/A speed=3.57x    frame= 9371 fps= 86 q=-0.0 size=N/A time=00:06:30.84 bitrate=N/A speed=3.57x    frame= 9414 fps= 86 q=-0.0 size=N/A time=00:06:32.64 bitrate=N/A speed=3.57x    frame= 9458 fps= 86 q=-0.0 size=N/A time=00:06:34.47 bitrate=N/A speed=3.57x    frame= 9500 fps= 86 q=-0.0 size=N/A time=00:06:36.22 bitrate=N/A speed=3.57x    frame= 9544 fps= 86 q=-0.0 size=N/A time=00:06:38.06 bitrate=N/A speed=3.57x    frame= 9591 fps= 86 q=-0.0 size=N/A time=00:06:40.02 bitrate=N/A speed=3.57x    frame= 9632 fps= 86 q=-0.0 size=N/A time=00:06:41.73 bitrate=N/A speed=3.57x    frame= 9677 fps= 86 q=-0.0 size=N/A time=00:06:43.61 bitrate=N/A speed=3.57x    frame= 9722 fps= 86 q=-0.0 size=N/A time=00:06:45.48 bitrate=N/A speed=3.57x    frame= 9766 fps= 86 q=-0.0 size=N/A time=00:06:47.32 bitrate=N/A speed=3.57x    frame= 9809 fps= 86 q=-0.0 size=N/A time=00:06:49.11 bitrate=N/A speed=3.57x    frame= 9854 fps= 86 q=-0.0 size=N/A time=00:06:50.99 bitrate=N/A speed=3.57x    frame= 9899 fps= 86 q=-0.0 size=N/A time=00:06:52.87 bitrate=N/A speed=3.57x    frame= 9943 fps= 86 q=-0.0 size=N/A time=00:06:54.70 bitrate=N/A speed=3.57x    frame= 9986 fps= 86 q=-0.0 size=N/A time=00:06:56.49 bitrate=N/A speed=3.57x    frame=10029 fps= 86 q=-0.0 size=N/A time=00:06:58.29 bitrate=N/A speed=3.57x    frame=10070 fps= 86 q=-0.0 size=N/A time=00:07:00.00 bitrate=N/A speed=3.57x    frame=10112 fps= 86 q=-0.0 size=N/A time=00:07:01.75 bitrate=N/A speed=3.57x    frame=10155 fps= 86 q=-0.0 size=N/A time=00:07:03.54 bitrate=N/A speed=3.57x    frame=10192 fps= 86 q=-0.0 size=N/A time=00:07:05.09 bitrate=N/A speed=3.57x    frame=10235 fps= 86 q=-0.0 size=N/A time=00:07:06.88 bitrate=N/A speed=3.57x    frame=10277 fps= 85 q=-0.0 size=N/A time=00:07:08.63 bitrate=N/A speed=3.57x    frame=10321 fps= 85 q=-0.0 size=N/A time=00:07:10.47 bitrate=N/A speed=3.57x    frame=10363 fps= 85 q=-0.0 size=N/A time=00:07:12.22 bitrate=N/A speed=3.57x    frame=10407 fps= 85 q=-0.0 size=N/A time=00:07:14.05 bitrate=N/A speed=3.56x    frame=10449 fps= 85 q=-0.0 size=N/A time=00:07:15.81 bitrate=N/A speed=3.56x    frame=10494 fps= 85 q=-0.0 size=N/A time=00:07:17.68 bitrate=N/A speed=3.56x    frame=10536 fps= 85 q=-0.0 size=N/A time=00:07:19.43 bitrate=N/A speed=3.56x    frame=10580 fps= 85 q=-0.0 size=N/A time=00:07:21.27 bitrate=N/A speed=3.56x    frame=10623 fps= 85 q=-0.0 size=N/A time=00:07:23.06 bitrate=N/A speed=3.56x    frame=10667 fps= 85 q=-0.0 size=N/A time=00:07:24.90 bitrate=N/A speed=3.56x    frame=10711 fps= 85 q=-0.0 size=N/A time=00:07:26.73 bitrate=N/A speed=3.56x    frame=10754 fps= 85 q=-0.0 size=N/A time=00:07:28.53 bitrate=N/A speed=3.56x    frame=10798 fps= 85 q=-0.0 size=N/A time=00:07:30.36 bitrate=N/A speed=3.56x    frame=10843 fps= 85 q=-0.0 size=N/A time=00:07:32.24 bitrate=N/A speed=3.56x    frame=10884 fps= 85 q=-0.0 size=N/A time=00:07:33.95 bitrate=N/A speed=3.56x    frame=10927 fps= 85 q=-0.0 size=N/A time=00:07:35.74 bitrate=N/A speed=3.56x    frame=10971 fps= 85 q=-0.0 size=N/A time=00:07:37.58 bitrate=N/A speed=3.56x    frame=11016 fps= 85 q=-0.0 size=N/A time=00:07:39.45 bitrate=N/A speed=3.56x    frame=11059 fps= 85 q=-0.0 size=N/A time=00:07:41.25 bitrate=N/A speed=3.56x    frame=11104 fps= 85 q=-0.0 size=N/A time=00:07:43.12 bitrate=N/A speed=3.56x    frame=11148 fps= 85 q=-0.0 size=N/A time=00:07:44.96 bitrate=N/A speed=3.56x    frame=11194 fps= 85 q=-0.0 size=N/A time=00:07:46.88 bitrate=N/A speed=3.56x    frame=11238 fps= 85 q=-0.0 size=N/A time=00:07:48.71 bitrate=N/A speed=3.56x    frame=11282 fps= 85 q=-0.0 size=N/A time=00:07:50.55 bitrate=N/A speed=3.56x    frame=11326 fps= 85 q=-0.0 size=N/A time=00:07:52.38 bitrate=N/A speed=3.56x    frame=11369 fps= 85 q=-0.0 size=N/A time=00:07:54.18 bitrate=N/A speed=3.56x    frame=11412 fps= 85 q=-0.0 size=N/A time=00:07:55.97 bitrate=N/A speed=3.56x    frame=11458 fps= 85 q=-0.0 size=N/A time=00:07:57.89 bitrate=N/A speed=3.56x    frame=11498 fps= 85 q=-0.0 size=N/A time=00:07:59.56 bitrate=N/A speed=3.56x    frame=11544 fps= 85 q=-0.0 size=N/A time=00:08:01.48 bitrate=N/A speed=3.56x    frame=11586 fps= 85 q=-0.0 size=N/A time=00:08:03.23 bitrate=N/A speed=3.56x    frame=11629 fps= 85 q=-0.0 size=N/A time=00:08:05.02 bitrate=N/A speed=3.56x    frame=11671 fps= 85 q=-0.0 size=N/A time=00:08:06.77 bitrate=N/A speed=3.56x    frame=11715 fps= 85 q=-0.0 size=N/A time=00:08:08.61 bitrate=N/A speed=3.56x    frame=11762 fps= 85 q=-0.0 size=N/A time=00:08:10.57 bitrate=N/A speed=3.56x    frame=11803 fps= 85 q=-0.0 size=N/A time=00:08:12.28 bitrate=N/A speed=3.56x    frame=11847 fps= 85 q=-0.0 size=N/A time=00:08:14.11 bitrate=N/A speed=3.56x    frame=11893 fps= 85 q=-0.0 size=N/A time=00:08:16.03 bitrate=N/A speed=3.56x    frame=11935 fps= 85 q=-0.0 size=N/A time=00:08:17.78 bitrate=N/A speed=3.56x    frame=11981 fps= 85 q=-0.0 size=N/A time=00:08:19.70 bitrate=N/A speed=3.56x    frame=12023 fps= 85 q=-0.0 size=N/A time=00:08:21.45 bitrate=N/A speed=3.56x    frame=12064 fps= 85 q=-0.0 size=N/A time=00:08:23.16 bitrate=N/A speed=3.56x    frame=12113 fps= 85 q=-0.0 size=N/A time=00:08:25.21 bitrate=N/A speed=3.56x    frame=12157 fps= 85 q=-0.0 size=N/A time=00:08:27.04 bitrate=N/A speed=3.56x    frame=12200 fps= 85 q=-0.0 size=N/A time=00:08:28.84 bitrate=N/A speed=3.56x    frame=12245 fps= 85 q=-0.0 size=N/A time=00:08:30.71 bitrate=N/A speed=3.56x    frame=12290 fps= 85 q=-0.0 size=N/A time=00:08:32.59 bitrate=N/A speed=3.56x    frame=12335 fps= 85 q=-0.0 size=N/A time=00:08:34.47 bitrate=N/A speed=3.56x    frame=12379 fps= 85 q=-0.0 size=N/A time=00:08:36.30 bitrate=N/A speed=3.56x    frame=12425 fps= 85 q=-0.0 size=N/A time=00:08:38.22 bitrate=N/A speed=3.56x    frame=12471 fps= 85 q=-0.0 size=N/A time=00:08:40.14 bitrate=N/A speed=3.56x    frame=12514 fps= 85 q=-0.0 size=N/A time=00:08:41.93 bitrate=N/A speed=3.56x    frame=12560 fps= 85 q=-0.0 size=N/A time=00:08:43.85 bitrate=N/A speed=3.56x    frame=12604 fps= 85 q=-0.0 size=N/A time=00:08:45.69 bitrate=N/A speed=3.56x    frame=12651 fps= 85 q=-0.0 size=N/A time=00:08:47.65 bitrate=N/A speed=3.56x    frame=12694 fps= 85 q=-0.0 size=N/A time=00:08:49.44 bitrate=N/A speed=3.56x    frame=12738 fps= 85 q=-0.0 size=N/A time=00:08:51.28 bitrate=N/A speed=3.56x    frame=12782 fps= 85 q=-0.0 size=N/A time=00:08:53.11 bitrate=N/A speed=3.56x    frame=12825 fps= 85 q=-0.0 size=N/A time=00:08:54.90 bitrate=N/A speed=3.56x    frame=12867 fps= 85 q=-0.0 size=N/A time=00:08:56.66 bitrate=N/A speed=3.56x    frame=12912 fps= 85 q=-0.0 size=N/A time=00:08:58.53 bitrate=N/A speed=3.56x    frame=12956 fps= 85 q=-0.0 size=N/A time=00:09:00.37 bitrate=N/A speed=3.56x    frame=13000 fps= 85 q=-0.0 size=N/A time=00:09:02.20 bitrate=N/A speed=3.56x    frame=13044 fps= 85 q=-0.0 size=N/A time=00:09:04.04 bitrate=N/A speed=3.56x    frame=13088 fps= 85 q=-0.0 size=N/A time=00:09:05.87 bitrate=N/A speed=3.56x    frame=13133 fps= 85 q=-0.0 size=N/A time=00:09:07.75 bitrate=N/A speed=3.56x    frame=13177 fps= 85 q=-0.0 size=N/A time=00:09:09.59 bitrate=N/A speed=3.56x    frame=13222 fps= 85 q=-0.0 size=N/A time=00:09:11.46 bitrate=N/A speed=3.56x    frame=13266 fps= 85 q=-0.0 size=N/A time=00:09:13.30 bitrate=N/A speed=3.56x    frame=13311 fps= 85 q=-0.0 size=N/A time=00:09:15.17 bitrate=N/A speed=3.56x    frame=13353 fps= 85 q=-0.0 size=N/A time=00:09:16.93 bitrate=N/A speed=3.56x    frame=13400 fps= 85 q=-0.0 size=N/A time=00:09:18.89 bitrate=N/A speed=3.56x    frame=13444 fps= 85 q=-0.0 size=N/A time=00:09:20.72 bitrate=N/A speed=3.56x    frame=13488 fps= 85 q=-0.0 size=N/A time=00:09:22.56 bitrate=N/A speed=3.56x    frame=13535 fps= 85 q=-0.0 size=N/A time=00:09:24.52 bitrate=N/A speed=3.56x    frame=13582 fps= 85 q=-0.0 size=N/A time=00:09:26.48 bitrate=N/A speed=3.57x    frame=13622 fps= 85 q=-0.0 size=N/A time=00:09:28.15 bitrate=N/A speed=3.56x    frame=13667 fps= 85 q=-0.0 size=N/A time=00:09:30.02 bitrate=N/A speed=3.56x    frame=13712 fps= 85 q=-0.0 size=N/A time=00:09:31.90 bitrate=N/A speed=3.56x    frame=13754 fps= 85 q=-0.0 size=N/A time=00:09:33.65 bitrate=N/A speed=3.56x    frame=13798 fps= 85 q=-0.0 size=N/A time=00:09:35.49 bitrate=N/A speed=3.56x    frame=13844 fps= 85 q=-0.0 size=N/A time=00:09:37.41 bitrate=N/A speed=3.56x    frame=13886 fps= 85 q=-0.0 size=N/A time=00:09:39.16 bitrate=N/A speed=3.56x    frame=13933 fps= 85 q=-0.0 size=N/A time=00:09:41.12 bitrate=N/A speed=3.56x    frame=13976 fps= 85 q=-0.0 size=N/A time=00:09:42.91 bitrate=N/A speed=3.56x    frame=14023 fps= 85 q=-0.0 size=N/A time=00:09:44.87 bitrate=N/A speed=3.57x    frame=14066 fps= 85 q=-0.0 size=N/A time=00:09:46.66 bitrate=N/A speed=3.56x    frame=14110 fps= 85 q=-0.0 size=N/A time=00:09:48.50 bitrate=N/A speed=3.56x    frame=14156 fps= 85 q=-0.0 size=N/A time=00:09:50.42 bitrate=N/A speed=3.57x    frame=14197 fps= 85 q=-0.0 size=N/A time=00:09:52.13 bitrate=N/A speed=3.56x    frame=14239 fps= 85 q=-0.0 size=N/A time=00:09:53.88 bitrate=N/A speed=3.56x    frame=14284 fps= 85 q=-0.0 size=N/A time=00:09:55.76 bitrate=N/A speed=3.56x    frame=14328 fps= 85 q=-0.0 size=N/A time=00:09:57.59 bitrate=N/A speed=3.56x    frame=14371 fps= 85 q=-0.0 size=N/A time=00:09:59.39 bitrate=N/A speed=3.56x    frame=14414 fps= 85 q=-0.0 size=N/A time=00:10:01.18 bitrate=N/A speed=3.56x    frame=14457 fps= 85 q=-0.0 size=N/A time=00:10:02.97 bitrate=N/A speed=3.56x    frame=14502 fps= 85 q=-0.0 size=N/A time=00:10:04.85 bitrate=N/A speed=3.56x    frame=14546 fps= 85 q=-0.0 size=N/A time=00:10:06.68 bitrate=N/A speed=3.56x    frame=14592 fps= 85 q=-0.0 size=N/A time=00:10:08.60 bitrate=N/A speed=3.56x    frame=14639 fps= 85 q=-0.0 size=N/A time=00:10:10.56 bitrate=N/A speed=3.56x    frame=14682 fps= 85 q=-0.0 size=N/A time=00:10:12.36 bitrate=N/A speed=3.56x    frame=14727 fps= 85 q=-0.0 size=N/A time=00:10:14.23 bitrate=N/A speed=3.56x    frame=14771 fps= 85 q=-0.0 size=N/A time=00:10:16.07 bitrate=N/A speed=3.56x    frame=14817 fps= 85 q=-0.0 size=N/A time=00:10:17.99 bitrate=N/A speed=3.57x    frame=14862 fps= 85 q=-0.0 size=N/A time=00:10:19.86 bitrate=N/A speed=3.57x    frame=14906 fps= 85 q=-0.0 size=N/A time=00:10:21.70 bitrate=N/A speed=3.57x    frame=14953 fps= 86 q=-0.0 size=N/A time=00:10:23.66 bitrate=N/A speed=3.57x    frame=14997 fps= 86 q=-0.0 size=N/A time=00:10:25.49 bitrate=N/A speed=3.57x    frame=15042 fps= 86 q=-0.0 size=N/A time=00:10:27.37 bitrate=N/A speed=3.57x    frame=15086 fps= 86 q=-0.0 size=N/A time=00:10:29.21 bitrate=N/A speed=3.57x    frame=15130 fps= 86 q=-0.0 size=N/A time=00:10:31.04 bitrate=N/A speed=3.57x    frame=15172 fps= 85 q=-0.0 size=N/A time=00:10:32.79 bitrate=N/A speed=3.57x    frame=15218 fps= 86 q=-0.0 size=N/A time=00:10:34.71 bitrate=N/A speed=3.57x    frame=15263 fps= 86 q=-0.0 size=N/A time=00:10:36.59 bitrate=N/A speed=3.57x    frame=15310 fps= 86 q=-0.0 size=N/A time=00:10:38.55 bitrate=N/A speed=3.57x    frame=15352 fps= 86 q=-0.0 size=N/A time=00:10:40.30 bitrate=N/A speed=3.57x    frame=15398 fps= 86 q=-0.0 size=N/A time=00:10:42.22 bitrate=N/A speed=3.57x    frame=15443 fps= 86 q=-0.0 size=N/A time=00:10:44.10 bitrate=N/A speed=3.57x    frame=15488 fps= 86 q=-0.0 size=N/A time=00:10:45.97 bitrate=N/A speed=3.57x    frame=15532 fps= 86 q=-0.0 size=N/A time=00:10:47.81 bitrate=N/A speed=3.57x    frame=15575 fps= 86 q=-0.0 size=N/A time=00:10:49.60 bitrate=N/A speed=3.57x    frame=15620 fps= 86 q=-0.0 size=N/A time=00:10:51.48 bitrate=N/A speed=3.57x    frame=15663 fps= 86 q=-0.0 size=N/A time=00:10:53.27 bitrate=N/A speed=3.57x    frame=15706 fps= 86 q=-0.0 size=N/A time=00:10:55.07 bitrate=N/A speed=3.57x    frame=15749 fps= 86 q=-0.0 size=N/A time=00:10:56.86 bitrate=N/A speed=3.57x    frame=15792 fps= 86 q=-0.0 size=N/A time=00:10:58.65 bitrate=N/A speed=3.57x    frame=15835 fps= 86 q=-0.0 size=N/A time=00:11:00.45 bitrate=N/A speed=3.57x    frame=15876 fps= 85 q=-0.0 size=N/A time=00:11:02.16 bitrate=N/A speed=3.57x    frame=15919 fps= 85 q=-0.0 size=N/A time=00:11:03.95 bitrate=N/A speed=3.57x    frame=15963 fps= 85 q=-0.0 size=N/A time=00:11:05.79 bitrate=N/A speed=3.57x    frame=16009 fps= 85 q=-0.0 size=N/A time=00:11:07.70 bitrate=N/A speed=3.57x    frame=16053 fps= 85 q=-0.0 size=N/A time=00:11:09.54 bitrate=N/A speed=3.57x    frame=16098 fps= 85 q=-0.0 size=N/A time=00:11:11.42 bitrate=N/A speed=3.57x    frame=16142 fps= 85 q=-0.0 size=N/A time=00:11:13.25 bitrate=N/A speed=3.57x    frame=16185 fps= 85 q=-0.0 size=N/A time=00:11:15.04 bitrate=N/A speed=3.57x    frame=16229 fps= 85 q=-0.0 size=N/A time=00:11:16.88 bitrate=N/A speed=3.57x    frame=16274 fps= 85 q=-0.0 size=N/A time=00:11:18.76 bitrate=N/A speed=3.57x    frame=16318 fps= 85 q=-0.0 size=N/A time=00:11:20.59 bitrate=N/A speed=3.57x    frame=16363 fps= 86 q=-0.0 size=N/A time=00:11:22.47 bitrate=N/A speed=3.57x    frame=16410 fps= 86 q=-0.0 size=N/A time=00:11:24.43 bitrate=N/A speed=3.57x    frame=16452 fps= 86 q=-0.0 size=N/A time=00:11:26.18 bitrate=N/A speed=3.57x    frame=16497 fps= 86 q=-0.0 size=N/A time=00:11:28.06 bitrate=N/A speed=3.57x    frame=16541 fps= 86 q=-0.0 size=N/A time=00:11:29.89 bitrate=N/A speed=3.57x    frame=16586 fps= 86 q=-0.0 size=N/A time=00:11:31.77 bitrate=N/A speed=3.57x    frame=16633 fps= 86 q=-0.0 size=N/A time=00:11:33.73 bitrate=N/A speed=3.57x    frame=16677 fps= 86 q=-0.0 size=N/A time=00:11:35.56 bitrate=N/A speed=3.57x    frame=16724 fps= 86 q=-0.0 size=N/A time=00:11:37.53 bitrate=N/A speed=3.57x    frame=16767 fps= 86 q=-0.0 size=N/A time=00:11:39.32 bitrate=N/A speed=3.57x    frame=16810 fps= 86 q=-0.0 size=N/A time=00:11:41.11 bitrate=N/A speed=3.57x    frame=16856 fps= 86 q=-0.0 size=N/A time=00:11:43.03 bitrate=N/A speed=3.57x    frame=16901 fps= 86 q=-0.0 size=N/A time=00:11:44.91 bitrate=N/A speed=3.57x    frame=16946 fps= 86 q=-0.0 size=N/A time=00:11:46.78 bitrate=N/A speed=3.57x    frame=16989 fps= 86 q=-0.0 size=N/A time=00:11:48.58 bitrate=N/A speed=3.57x    frame=17034 fps= 86 q=-0.0 size=N/A time=00:11:50.45 bitrate=N/A speed=3.57x    frame=17079 fps= 86 q=-0.0 size=N/A time=00:11:52.33 bitrate=N/A speed=3.57x    frame=17122 fps= 86 q=-0.0 size=N/A time=00:11:54.13 bitrate=N/A speed=3.57x    frame=17167 fps= 86 q=-0.0 size=N/A time=00:11:56.00 bitrate=N/A speed=3.57x    frame=17213 fps= 86 q=-0.0 size=N/A time=00:11:57.92 bitrate=N/A speed=3.57x    frame=17255 fps= 86 q=-0.0 size=N/A time=00:11:59.67 bitrate=N/A speed=3.57x    frame=17300 fps= 86 q=-0.0 size=N/A time=00:12:01.55 bitrate=N/A speed=3.57x    frame=17342 fps= 86 q=-0.0 size=N/A time=00:12:03.30 bitrate=N/A speed=3.57x    frame=17387 fps= 86 q=-0.0 size=N/A time=00:12:05.18 bitrate=N/A speed=3.57x    frame=17431 fps= 86 q=-0.0 size=N/A time=00:12:07.01 bitrate=N/A speed=3.57x    frame=17475 fps= 86 q=-0.0 size=N/A time=00:12:08.85 bitrate=N/A speed=3.57x    frame=17518 fps= 86 q=-0.0 size=N/A time=00:12:10.64 bitrate=N/A speed=3.57x    frame=17561 fps= 86 q=-0.0 size=N/A time=00:12:12.44 bitrate=N/A speed=3.57x    frame=17607 fps= 86 q=-0.0 size=N/A time=00:12:14.35 bitrate=N/A speed=3.57x    frame=17651 fps= 86 q=-0.0 size=N/A time=00:12:16.19 bitrate=N/A speed=3.57x    frame=17694 fps= 86 q=-0.0 size=N/A time=00:12:17.98 bitrate=N/A speed=3.57x    frame=17739 fps= 86 q=-0.0 size=N/A time=00:12:19.86 bitrate=N/A speed=3.57x    frame=17784 fps= 86 q=-0.0 size=N/A time=00:12:21.74 bitrate=N/A speed=3.57x    frame=17826 fps= 86 q=-0.0 size=N/A time=00:12:23.49 bitrate=N/A speed=3.57x    frame=17870 fps= 86 q=-0.0 size=N/A time=00:12:25.32 bitrate=N/A speed=3.57x    frame=17914 fps= 86 q=-0.0 size=N/A time=00:12:27.16 bitrate=N/A speed=3.57x    frame=17960 fps= 86 q=-0.0 size=N/A time=00:12:29.08 bitrate=N/A speed=3.57x    frame=18005 fps= 86 q=-0.0 size=N/A time=00:12:30.95 bitrate=N/A speed=3.57x    frame=18048 fps= 86 q=-0.0 size=N/A time=00:12:32.75 bitrate=N/A speed=3.57x    frame=18092 fps= 86 q=-0.0 size=N/A time=00:12:34.58 bitrate=N/A speed=3.57x    frame=18134 fps= 86 q=-0.0 size=N/A time=00:12:36.33 bitrate=N/A speed=3.57x    frame=18175 fps= 86 q=-0.0 size=N/A time=00:12:38.04 bitrate=N/A speed=3.57x    frame=18221 fps= 86 q=-0.0 size=N/A time=00:12:39.96 bitrate=N/A speed=3.57x    frame=18263 fps= 86 q=-0.0 size=N/A time=00:12:41.71 bitrate=N/A speed=3.57x    frame=18309 fps= 86 q=-0.0 size=N/A time=00:12:43.63 bitrate=N/A speed=3.57x    frame=18353 fps= 86 q=-0.0 size=N/A time=00:12:45.47 bitrate=N/A speed=3.57x    frame=18398 fps= 86 q=-0.0 size=N/A time=00:12:47.34 bitrate=N/A speed=3.57x    frame=18441 fps= 86 q=-0.0 size=N/A time=00:12:49.14 bitrate=N/A speed=3.57x    frame=18483 fps= 86 q=-0.0 size=N/A time=00:12:50.89 bitrate=N/A speed=3.57x    frame=18528 fps= 86 q=-0.0 size=N/A time=00:12:52.77 bitrate=N/A speed=3.57x    frame=18571 fps= 86 q=-0.0 size=N/A time=00:12:54.56 bitrate=N/A speed=3.57x    frame=18616 fps= 86 q=-0.0 size=N/A time=00:12:56.44 bitrate=N/A speed=3.57x    frame=18661 fps= 86 q=-0.0 size=N/A time=00:12:58.31 bitrate=N/A speed=3.57x    frame=18704 fps= 86 q=-0.0 size=N/A time=00:13:00.11 bitrate=N/A speed=3.57x    frame=18748 fps= 86 q=-0.0 size=N/A time=00:13:01.94 bitrate=N/A speed=3.57x    frame=18792 fps= 86 q=-0.0 size=N/A time=00:13:03.78 bitrate=N/A speed=3.57x    frame=18837 fps= 86 q=-0.0 size=N/A time=00:13:05.65 bitrate=N/A speed=3.57x    frame=18881 fps= 86 q=-0.0 size=N/A time=00:13:07.49 bitrate=N/A speed=3.57x    frame=18926 fps= 86 q=-0.0 size=N/A time=00:13:09.37 bitrate=N/A speed=3.57x    frame=18971 fps= 86 q=-0.0 size=N/A time=00:13:11.24 bitrate=N/A speed=3.57x    frame=19015 fps= 86 q=-0.0 size=N/A time=00:13:13.08 bitrate=N/A speed=3.57x    frame=19059 fps= 86 q=-0.0 size=N/A time=00:13:14.91 bitrate=N/A speed=3.57x    frame=19104 fps= 86 q=-0.0 size=N/A time=00:13:16.79 bitrate=N/A speed=3.57x    frame=19147 fps= 86 q=-0.0 size=N/A time=00:13:18.58 bitrate=N/A speed=3.57x    frame=19191 fps= 86 q=-0.0 size=N/A time=00:13:20.42 bitrate=N/A speed=3.57x    frame=19235 fps= 86 q=-0.0 size=N/A time=00:13:22.25 bitrate=N/A speed=3.57x    frame=19277 fps= 86 q=-0.0 size=N/A time=00:13:24.01 bitrate=N/A speed=3.57x    frame=19322 fps= 86 q=-0.0 size=N/A time=00:13:25.88 bitrate=N/A speed=3.57x    frame=19364 fps= 86 q=-0.0 size=N/A time=00:13:27.64 bitrate=N/A speed=3.57x    frame=19405 fps= 86 q=-0.0 size=N/A time=00:13:29.35 bitrate=N/A speed=3.57x    frame=19450 fps= 86 q=-0.0 size=N/A time=00:13:31.22 bitrate=N/A speed=3.57x    frame=19494 fps= 86 q=-0.0 size=N/A time=00:13:33.06 bitrate=N/A speed=3.57x    frame=19539 fps= 86 q=-0.0 size=N/A time=00:13:34.93 bitrate=N/A speed=3.57x    frame=19581 fps= 85 q=-0.0 size=N/A time=00:13:36.69 bitrate=N/A speed=3.57x    frame=19624 fps= 85 q=-0.0 size=N/A time=00:13:38.48 bitrate=N/A speed=3.57x    frame=19669 fps= 85 q=-0.0 size=N/A time=00:13:40.36 bitrate=N/A speed=3.57x    frame=19713 fps= 85 q=-0.0 size=N/A time=00:13:42.19 bitrate=N/A speed=3.57x    frame=19756 fps= 85 q=-0.0 size=N/A time=00:13:43.98 bitrate=N/A speed=3.57x    frame=19798 fps= 85 q=-0.0 size=N/A time=00:13:45.74 bitrate=N/A speed=3.57x    frame=19843 fps= 85 q=-0.0 size=N/A time=00:13:47.61 bitrate=N/A speed=3.57x    frame=19887 fps= 85 q=-0.0 size=N/A time=00:13:49.45 bitrate=N/A speed=3.57x    frame=19932 fps= 85 q=-0.0 size=N/A time=00:13:51.33 bitrate=N/A speed=3.57x    frame=19974 fps= 85 q=-0.0 size=N/A time=00:13:53.08 bitrate=N/A speed=3.57x    frame=20016 fps= 85 q=-0.0 size=N/A time=00:13:54.83 bitrate=N/A speed=3.56x    frame=20061 fps= 85 q=-0.0 size=N/A time=00:13:56.71 bitrate=N/A speed=3.57x    frame=20106 fps= 85 q=-0.0 size=N/A time=00:13:58.58 bitrate=N/A speed=3.57x    frame=20150 fps= 85 q=-0.0 size=N/A time=00:14:00.42 bitrate=N/A speed=3.57x    frame=20197 fps= 85 q=-0.0 size=N/A time=00:14:02.38 bitrate=N/A speed=3.57x    frame=20241 fps= 85 q=-0.0 size=N/A time=00:14:04.21 bitrate=N/A speed=3.57x    frame=20286 fps= 85 q=-0.0 size=N/A time=00:14:06.09 bitrate=N/A speed=3.57x    frame=20328 fps= 85 q=-0.0 size=N/A time=00:14:07.84 bitrate=N/A speed=3.57x    frame=20373 fps= 85 q=-0.0 size=N/A time=00:14:09.72 bitrate=N/A speed=3.57x    frame=20417 fps= 85 q=-0.0 size=N/A time=00:14:11.55 bitrate=N/A speed=3.57x    frame=20462 fps= 85 q=-0.0 size=N/A time=00:14:13.43 bitrate=N/A speed=3.57x    frame=20506 fps= 85 q=-0.0 size=N/A time=00:14:15.27 bitrate=N/A speed=3.57x    frame=20550 fps= 85 q=-0.0 size=N/A time=00:14:17.10 bitrate=N/A speed=3.57x    frame=20594 fps= 85 q=-0.0 size=N/A time=00:14:18.94 bitrate=N/A speed=3.57x    frame=20636 fps= 85 q=-0.0 size=N/A time=00:14:20.69 bitrate=N/A speed=3.57x    frame=20681 fps= 85 q=-0.0 size=N/A time=00:14:22.57 bitrate=N/A speed=3.57x    frame=20723 fps= 85 q=-0.0 size=N/A time=00:14:24.32 bitrate=N/A speed=3.56x    frame=20765 fps= 85 q=-0.0 size=N/A time=00:14:26.07 bitrate=N/A speed=3.56x    frame=20809 fps= 85 q=-0.0 size=N/A time=00:14:27.90 bitrate=N/A speed=3.56x    frame=20852 fps= 85 q=-0.0 size=N/A time=00:14:29.70 bitrate=N/A speed=3.56x    frame=20896 fps= 85 q=-0.0 size=N/A time=00:14:31.53 bitrate=N/A speed=3.56x    frame=20941 fps= 85 q=-0.0 size=N/A time=00:14:33.41 bitrate=N/A speed=3.56x    frame=20984 fps= 85 q=-0.0 size=N/A time=00:14:35.20 bitrate=N/A speed=3.56x    frame=21026 fps= 85 q=-0.0 size=N/A time=00:14:36.95 bitrate=N/A speed=3.56x    frame=21069 fps= 85 q=-0.0 size=N/A time=00:14:38.75 bitrate=N/A speed=3.56x    frame=21112 fps= 85 q=-0.0 size=N/A time=00:14:40.54 bitrate=N/A speed=3.56x    frame=21155 fps= 85 q=-0.0 size=N/A time=00:14:42.33 bitrate=N/A speed=3.56x    frame=21197 fps= 85 q=-0.0 size=N/A time=00:14:44.09 bitrate=N/A speed=3.56x    frame=21243 fps= 85 q=-0.0 size=N/A time=00:14:46.01 bitrate=N/A speed=3.56x    frame=21287 fps= 85 q=-0.0 size=N/A time=00:14:47.84 bitrate=N/A speed=3.56x    frame=21332 fps= 85 q=-0.0 size=N/A time=00:14:49.72 bitrate=N/A speed=3.56x    frame=21375 fps= 85 q=-0.0 size=N/A time=00:14:51.51 bitrate=N/A speed=3.56x    frame=21419 fps= 85 q=-0.0 size=N/A time=00:14:53.35 bitrate=N/A speed=3.56x    frame=21462 fps= 85 q=-0.0 size=N/A time=00:14:55.14 bitrate=N/A speed=3.56x    frame=21505 fps= 85 q=-0.0 size=N/A time=00:14:56.93 bitrate=N/A speed=3.56x    frame=21550 fps= 85 q=-0.0 size=N/A time=00:14:58.81 bitrate=N/A speed=3.56x    frame=21593 fps= 85 q=-0.0 size=N/A time=00:15:00.60 bitrate=N/A speed=3.56x    frame=21637 fps= 85 q=-0.0 size=N/A time=00:15:02.44 bitrate=N/A speed=3.56x    frame=21684 fps= 85 q=-0.0 size=N/A time=00:15:04.40 bitrate=N/A speed=3.56x    frame=21727 fps= 85 q=-0.0 size=N/A time=00:15:06.19 bitrate=N/A speed=3.56x    frame=21771 fps= 85 q=-0.0 size=N/A time=00:15:08.03 bitrate=N/A speed=3.56x    frame=21815 fps= 85 q=-0.0 size=N/A time=00:15:09.86 bitrate=N/A speed=3.56x    frame=21858 fps= 85 q=-0.0 size=N/A time=00:15:11.66 bitrate=N/A speed=3.56x    frame=21901 fps= 85 q=-0.0 size=N/A time=00:15:13.45 bitrate=N/A speed=3.56x    frame=21943 fps= 85 q=-0.0 size=N/A time=00:15:15.20 bitrate=N/A speed=3.56x    frame=21986 fps= 85 q=-0.0 size=N/A time=00:15:16.99 bitrate=N/A speed=3.56x    frame=22028 fps= 85 q=-0.0 size=N/A time=00:15:18.75 bitrate=N/A speed=3.56x    frame=22073 fps= 85 q=-0.0 size=N/A time=00:15:20.62 bitrate=N/A speed=3.56x    frame=22118 fps= 85 q=-0.0 size=N/A time=00:15:22.50 bitrate=N/A speed=3.56x    frame=22162 fps= 85 q=-0.0 size=N/A time=00:15:24.34 bitrate=N/A speed=3.56x    frame=22206 fps= 85 q=-0.0 size=N/A time=00:15:26.17 bitrate=N/A speed=3.56x    frame=22248 fps= 85 q=-0.0 size=N/A time=00:15:27.92 bitrate=N/A speed=3.56x    frame=22292 fps= 85 q=-0.0 size=N/A time=00:15:29.76 bitrate=N/A speed=3.56x    frame=22335 fps= 85 q=-0.0 size=N/A time=00:15:31.55 bitrate=N/A speed=3.56x    frame=22380 fps= 85 q=-0.0 size=N/A time=00:15:33.43 bitrate=N/A speed=3.56x    frame=22424 fps= 85 q=-0.0 size=N/A time=00:15:35.26 bitrate=N/A speed=3.56x    frame=22466 fps= 85 q=-0.0 size=N/A time=00:15:37.01 bitrate=N/A speed=3.56x    frame=22512 fps= 85 q=-0.0 size=N/A time=00:15:38.93 bitrate=N/A speed=3.56x    frame=22555 fps= 85 q=-0.0 size=N/A time=00:15:40.73 bitrate=N/A speed=3.56x    frame=22599 fps= 85 q=-0.0 size=N/A time=00:15:42.56 bitrate=N/A speed=3.56x    frame=22643 fps= 85 q=-0.0 size=N/A time=00:15:44.40 bitrate=N/A speed=3.56x    frame=22687 fps= 85 q=-0.0 size=N/A time=00:15:46.23 bitrate=N/A speed=3.56x    frame=22729 fps= 85 q=-0.0 size=N/A time=00:15:47.98 bitrate=N/A speed=3.56x    frame=22770 fps= 85 q=-0.0 size=N/A time=00:15:49.69 bitrate=N/A speed=3.56x    frame=22817 fps= 85 q=-0.0 size=N/A time=00:15:51.65 bitrate=N/A speed=3.56x    frame=22861 fps= 85 q=-0.0 size=N/A time=00:15:53.49 bitrate=N/A speed=3.56x    frame=22904 fps= 85 q=-0.0 size=N/A time=00:15:55.28 bitrate=N/A speed=3.56x    frame=22947 fps= 85 q=-0.0 size=N/A time=00:15:57.08 bitrate=N/A speed=3.56x    frame=22992 fps= 85 q=-0.0 size=N/A time=00:15:58.95 bitrate=N/A speed=3.56x    frame=23036 fps= 85 q=-0.0 size=N/A time=00:16:00.79 bitrate=N/A speed=3.56x    frame=23079 fps= 85 q=-0.0 size=N/A time=00:16:02.58 bitrate=N/A speed=3.56x    frame=23124 fps= 85 q=-0.0 size=N/A time=00:16:04.46 bitrate=N/A speed=3.56x    frame=23168 fps= 85 q=-0.0 size=N/A time=00:16:06.29 bitrate=N/A speed=3.56x    frame=23210 fps= 85 q=-0.0 size=N/A time=00:16:08.05 bitrate=N/A speed=3.56x    frame=23254 fps= 85 q=-0.0 size=N/A time=00:16:09.88 bitrate=N/A speed=3.56x    frame=23299 fps= 85 q=-0.0 size=N/A time=00:16:11.76 bitrate=N/A speed=3.56x    frame=23346 fps= 85 q=-0.0 size=N/A time=00:16:13.72 bitrate=N/A speed=3.56x    frame=23389 fps= 85 q=-0.0 size=N/A time=00:16:15.51 bitrate=N/A speed=3.56x    frame=23435 fps= 85 q=-0.0 size=N/A time=00:16:17.43 bitrate=N/A speed=3.56x    frame=23481 fps= 85 q=-0.0 size=N/A time=00:16:19.35 bitrate=N/A speed=3.56x    frame=23523 fps= 85 q=-0.0 size=N/A time=00:16:21.10 bitrate=N/A speed=3.56x    frame=23566 fps= 85 q=-0.0 size=N/A time=00:16:22.89 bitrate=N/A speed=3.56x    frame=23610 fps= 85 q=-0.0 size=N/A time=00:16:24.73 bitrate=N/A speed=3.56x    frame=23653 fps= 85 q=-0.0 size=N/A time=00:16:26.52 bitrate=N/A speed=3.56x    frame=23698 fps= 85 q=-0.0 size=N/A time=00:16:28.40 bitrate=N/A speed=3.56x    frame=23744 fps= 85 q=-0.0 size=N/A time=00:16:30.32 bitrate=N/A speed=3.56x    frame=23787 fps= 85 q=-0.0 size=N/A time=00:16:32.11 bitrate=N/A speed=3.56x    frame=23833 fps= 85 q=-0.0 size=N/A time=00:16:34.03 bitrate=N/A speed=3.56x    frame=23877 fps= 85 q=-0.0 size=N/A time=00:16:35.86 bitrate=N/A speed=3.56x    frame=23920 fps= 85 q=-0.0 size=N/A time=00:16:37.66 bitrate=N/A speed=3.56x    frame=23966 fps= 85 q=-0.0 size=N/A time=00:16:39.58 bitrate=N/A speed=3.56x    frame=24010 fps= 85 q=-0.0 size=N/A time=00:16:41.41 bitrate=N/A speed=3.56x    frame=24054 fps= 85 q=-0.0 size=N/A time=00:16:43.25 bitrate=N/A speed=3.56x    frame=24096 fps= 85 q=-0.0 size=N/A time=00:16:45.00 bitrate=N/A speed=3.56x    frame=24140 fps= 85 q=-0.0 size=N/A time=00:16:46.83 bitrate=N/A speed=3.56x    frame=24187 fps= 85 q=-0.0 size=N/A time=00:16:48.79 bitrate=N/A speed=3.56x    frame=24230 fps= 85 q=-0.0 size=N/A time=00:16:50.59 bitrate=N/A speed=3.56x    frame=24276 fps= 85 q=-0.0 size=N/A time=00:16:52.51 bitrate=N/A speed=3.56x    frame=24318 fps= 85 q=-0.0 size=N/A time=00:16:54.26 bitrate=N/A speed=3.56x    frame=24362 fps= 85 q=-0.0 size=N/A time=00:16:56.09 bitrate=N/A speed=3.56x    frame=24406 fps= 85 q=-0.0 size=N/A time=00:16:57.93 bitrate=N/A speed=3.56x    frame=24450 fps= 85 q=-0.0 size=N/A time=00:16:59.76 bitrate=N/A speed=3.56x    frame=24495 fps= 85 q=-0.0 size=N/A time=00:17:01.64 bitrate=N/A speed=3.56x    frame=24541 fps= 85 q=-0.0 size=N/A time=00:17:03.56 bitrate=N/A speed=3.56x    frame=24583 fps= 85 q=-0.0 size=N/A time=00:17:05.31 bitrate=N/A speed=3.56x    frame=24627 fps= 85 q=-0.0 size=N/A time=00:17:07.15 bitrate=N/A speed=3.56x    frame=24670 fps= 85 q=-0.0 size=N/A time=00:17:08.94 bitrate=N/A speed=3.56x    frame=24714 fps= 85 q=-0.0 size=N/A time=00:17:10.77 bitrate=N/A speed=3.56x    frame=24755 fps= 85 q=-0.0 size=N/A time=00:17:12.48 bitrate=N/A speed=3.56x    frame=24800 fps= 85 q=-0.0 size=N/A time=00:17:14.36 bitrate=N/A speed=3.56x    frame=24845 fps= 85 q=-0.0 size=N/A time=00:17:16.24 bitrate=N/A speed=3.56x    frame=24887 fps= 85 q=-0.0 size=N/A time=00:17:17.99 bitrate=N/A speed=3.56x    frame=24930 fps= 85 q=-0.0 size=N/A time=00:17:19.78 bitrate=N/A speed=3.56x    frame=24977 fps= 85 q=-0.0 size=N/A time=00:17:21.74 bitrate=N/A speed=3.56x    frame=25021 fps= 85 q=-0.0 size=N/A time=00:17:23.58 bitrate=N/A speed=3.56x    frame=25066 fps= 85 q=-0.0 size=N/A time=00:17:25.46 bitrate=N/A speed=3.56x    frame=25108 fps= 85 q=-0.0 size=N/A time=00:17:27.21 bitrate=N/A speed=3.56x    frame=25155 fps= 85 q=-0.0 size=N/A time=00:17:29.17 bitrate=N/A speed=3.56x    frame=25199 fps= 85 q=-0.0 size=N/A time=00:17:31.00 bitrate=N/A speed=3.56x    frame=25244 fps= 85 q=-0.0 size=N/A time=00:17:32.88 bitrate=N/A speed=3.56x    frame=25288 fps= 85 q=-0.0 size=N/A time=00:17:34.72 bitrate=N/A speed=3.56x    frame=25334 fps= 85 q=-0.0 size=N/A time=00:17:36.63 bitrate=N/A speed=3.56x    frame=25380 fps= 85 q=-0.0 size=N/A time=00:17:38.55 bitrate=N/A speed=3.56x    frame=25424 fps= 85 q=-0.0 size=N/A time=00:17:40.39 bitrate=N/A speed=3.56x    frame=25469 fps= 85 q=-0.0 size=N/A time=00:17:42.26 bitrate=N/A speed=3.56x    frame=25515 fps= 85 q=-0.0 size=N/A time=00:17:44.18 bitrate=N/A speed=3.56x    frame=25559 fps= 85 q=-0.0 size=N/A time=00:17:46.02 bitrate=N/A speed=3.56x    frame=25604 fps= 85 q=-0.0 size=N/A time=00:17:47.90 bitrate=N/A speed=3.56x    frame=25648 fps= 85 q=-0.0 size=N/A time=00:17:49.73 bitrate=N/A speed=3.56x    frame=25691 fps= 85 q=-0.0 size=N/A time=00:17:51.52 bitrate=N/A speed=3.56x    frame=25734 fps= 85 q=-0.0 size=N/A time=00:17:53.32 bitrate=N/A speed=3.56x    frame=25776 fps= 85 q=-0.0 size=N/A time=00:17:55.07 bitrate=N/A speed=3.56x    frame=25819 fps= 85 q=-0.0 size=N/A time=00:17:56.86 bitrate=N/A speed=3.56x    frame=25865 fps= 85 q=-0.0 size=N/A time=00:17:58.78 bitrate=N/A speed=3.56x    frame=25909 fps= 85 q=-0.0 size=N/A time=00:18:00.62 bitrate=N/A speed=3.56x    frame=25953 fps= 85 q=-0.0 size=N/A time=00:18:02.45 bitrate=N/A speed=3.56x    frame=25997 fps= 85 q=-0.0 size=N/A time=00:18:04.29 bitrate=N/A speed=3.56x    frame=26042 fps= 85 q=-0.0 size=N/A time=00:18:06.16 bitrate=N/A speed=3.56x    frame=26087 fps= 85 q=-0.0 size=N/A time=00:18:08.04 bitrate=N/A speed=3.56x    frame=26130 fps= 85 q=-0.0 size=N/A time=00:18:09.83 bitrate=N/A speed=3.56x    frame=26172 fps= 85 q=-0.0 size=N/A time=00:18:11.59 bitrate=N/A speed=3.56x    frame=26216 fps= 85 q=-0.0 size=N/A time=00:18:13.42 bitrate=N/A speed=3.56x    frame=26259 fps= 85 q=-0.0 size=N/A time=00:18:15.21 bitrate=N/A speed=3.56x    frame=26301 fps= 85 q=-0.0 size=N/A time=00:18:16.97 bitrate=N/A speed=3.56x    frame=26346 fps= 85 q=-0.0 size=N/A time=00:18:18.84 bitrate=N/A speed=3.56x    frame=26390 fps= 85 q=-0.0 size=N/A time=00:18:20.68 bitrate=N/A speed=3.56x    frame=26434 fps= 85 q=-0.0 size=N/A time=00:18:22.51 bitrate=N/A speed=3.56x    frame=26479 fps= 85 q=-0.0 size=N/A time=00:18:24.39 bitrate=N/A speed=3.56x    frame=26524 fps= 85 q=-0.0 size=N/A time=00:18:26.27 bitrate=N/A speed=3.56x    frame=26570 fps= 85 q=-0.0 size=N/A time=00:18:28.19 bitrate=N/A speed=3.56x    frame=26614 fps= 85 q=-0.0 size=N/A time=00:18:30.02 bitrate=N/A speed=3.56x    frame=26658 fps= 85 q=-0.0 size=N/A time=00:18:31.86 bitrate=N/A speed=3.56x    frame=26704 fps= 85 q=-0.0 size=N/A time=00:18:33.77 bitrate=N/A speed=3.56x    frame=26748 fps= 85 q=-0.0 size=N/A time=00:18:35.61 bitrate=N/A speed=3.56x    frame=26793 fps= 85 q=-0.0 size=N/A time=00:18:37.49 bitrate=N/A speed=3.56x    frame=26836 fps= 85 q=-0.0 size=N/A time=00:18:39.28 bitrate=N/A speed=3.56x    frame=26881 fps= 85 q=-0.0 size=N/A time=00:18:41.16 bitrate=N/A speed=3.56x    frame=26927 fps= 85 q=-0.0 size=N/A time=00:18:43.08 bitrate=N/A speed=3.56x    frame=26973 fps= 85 q=-0.0 size=N/A time=00:18:44.99 bitrate=N/A speed=3.56x    frame=27018 fps= 85 q=-0.0 size=N/A time=00:18:46.87 bitrate=N/A speed=3.56x    frame=27060 fps= 85 q=-0.0 size=N/A time=00:18:48.62 bitrate=N/A speed=3.56x    frame=27103 fps= 85 q=-0.0 size=N/A time=00:18:50.42 bitrate=N/A speed=3.56x    frame=27147 fps= 85 q=-0.0 size=N/A time=00:18:52.25 bitrate=N/A speed=3.56x    frame=27192 fps= 85 q=-0.0 size=N/A time=00:18:54.13 bitrate=N/A speed=3.56x    frame=27239 fps= 85 q=-0.0 size=N/A time=00:18:56.09 bitrate=N/A speed=3.56x    frame=27282 fps= 85 q=-0.0 size=N/A time=00:18:57.88 bitrate=N/A speed=3.56x    frame=27327 fps= 85 q=-0.0 size=N/A time=00:18:59.76 bitrate=N/A speed=3.56x    frame=27373 fps= 85 q=-0.0 size=N/A time=00:19:01.68 bitrate=N/A speed=3.56x    frame=27416 fps= 85 q=-0.0 size=N/A time=00:19:03.47 bitrate=N/A speed=3.56x    frame=27462 fps= 85 q=-0.0 size=N/A time=00:19:05.39 bitrate=N/A speed=3.56x    frame=27505 fps= 85 q=-0.0 size=N/A time=00:19:07.18 bitrate=N/A speed=3.56x    frame=27547 fps= 85 q=-0.0 size=N/A time=00:19:08.93 bitrate=N/A speed=3.56x    frame=27593 fps= 85 q=-0.0 size=N/A time=00:19:10.85 bitrate=N/A speed=3.56x    frame=27637 fps= 85 q=-0.0 size=N/A time=00:19:12.69 bitrate=N/A speed=3.56x    frame=27680 fps= 85 q=-0.0 size=N/A time=00:19:14.48 bitrate=N/A speed=3.56x    frame=27724 fps= 85 q=-0.0 size=N/A time=00:19:16.32 bitrate=N/A speed=3.56x    frame=27768 fps= 85 q=-0.0 size=N/A time=00:19:18.15 bitrate=N/A speed=3.56x    frame=27812 fps= 85 q=-0.0 size=N/A time=00:19:19.99 bitrate=N/A speed=3.56x    frame=27858 fps= 85 q=-0.0 size=N/A time=00:19:21.91 bitrate=N/A speed=3.56x    frame=27903 fps= 85 q=-0.0 size=N/A time=00:19:23.78 bitrate=N/A speed=3.56x    frame=27948 fps= 85 q=-0.0 size=N/A time=00:19:25.66 bitrate=N/A speed=3.56x    frame=27995 fps= 85 q=-0.0 size=N/A time=00:19:27.62 bitrate=N/A speed=3.56x    frame=28038 fps= 85 q=-0.0 size=N/A time=00:19:29.41 bitrate=N/A speed=3.56x    frame=28083 fps= 85 q=-0.0 size=N/A time=00:19:31.29 bitrate=N/A speed=3.56x    frame=28128 fps= 85 q=-0.0 size=N/A time=00:19:33.17 bitrate=N/A speed=3.56x    frame=28172 fps= 85 q=-0.0 size=N/A time=00:19:35.00 bitrate=N/A speed=3.56x    frame=28217 fps= 85 q=-0.0 size=N/A time=00:19:36.88 bitrate=N/A speed=3.56x    frame=28261 fps= 85 q=-0.0 size=N/A time=00:19:38.71 bitrate=N/A speed=3.56x    frame=28304 fps= 85 q=-0.0 size=N/A time=00:19:40.51 bitrate=N/A speed=3.56x    frame=28348 fps= 85 q=-0.0 size=N/A time=00:19:42.34 bitrate=N/A speed=3.56x    frame=28394 fps= 85 q=-0.0 size=N/A time=00:19:44.26 bitrate=N/A speed=3.56x    frame=28436 fps= 85 q=-0.0 size=N/A time=00:19:46.01 bitrate=N/A speed=3.56x    frame=28481 fps= 85 q=-0.0 size=N/A time=00:19:47.89 bitrate=N/A speed=3.56x    frame=28526 fps= 85 q=-0.0 size=N/A time=00:19:49.77 bitrate=N/A speed=3.56x    frame=28570 fps= 85 q=-0.0 size=N/A time=00:19:51.60 bitrate=N/A speed=3.56x    frame=28615 fps= 85 q=-0.0 size=N/A time=00:19:53.48 bitrate=N/A speed=3.56x    frame=28660 fps= 85 q=-0.0 size=N/A time=00:19:55.36 bitrate=N/A speed=3.56x    frame=28705 fps= 85 q=-0.0 size=N/A time=00:19:57.23 bitrate=N/A speed=3.57x    frame=28749 fps= 85 q=-0.0 size=N/A time=00:19:59.07 bitrate=N/A speed=3.57x    frame=28794 fps= 85 q=-0.0 size=N/A time=00:20:00.94 bitrate=N/A speed=3.57x    frame=28839 fps= 85 q=-0.0 size=N/A time=00:20:02.82 bitrate=N/A speed=3.57x    frame=28882 fps= 85 q=-0.0 size=N/A time=00:20:04.62 bitrate=N/A speed=3.57x    frame=28928 fps= 85 q=-0.0 size=N/A time=00:20:06.53 bitrate=N/A speed=3.57x    frame=28973 fps= 85 q=-0.0 size=N/A time=00:20:08.41 bitrate=N/A speed=3.57x    frame=29016 fps= 85 q=-0.0 size=N/A time=00:20:10.20 bitrate=N/A speed=3.57x    frame=29059 fps= 85 q=-0.0 size=N/A time=00:20:12.00 bitrate=N/A speed=3.57x    frame=29102 fps= 85 q=-0.0 size=N/A time=00:20:13.79 bitrate=N/A speed=3.57x    frame=29147 fps= 85 q=-0.0 size=N/A time=00:20:15.67 bitrate=N/A speed=3.57x    frame=29190 fps= 85 q=-0.0 size=N/A time=00:20:17.46 bitrate=N/A speed=3.57x    frame=29236 fps= 85 q=-0.0 size=N/A time=00:20:19.38 bitrate=N/A speed=3.57x    frame=29280 fps= 85 q=-0.0 size=N/A time=00:20:21.22 bitrate=N/A speed=3.57x    frame=29322 fps= 85 q=-0.0 size=N/A time=00:20:22.97 bitrate=N/A speed=3.57x    frame=29367 fps= 85 q=-0.0 size=N/A time=00:20:24.84 bitrate=N/A speed=3.57x    frame=29412 fps= 85 q=-0.0 size=N/A time=00:20:26.72 bitrate=N/A speed=3.57x    frame=29456 fps= 85 q=-0.0 size=N/A time=00:20:28.56 bitrate=N/A speed=3.57x    frame=29499 fps= 85 q=-0.0 size=N/A time=00:20:30.35 bitrate=N/A speed=3.57x    frame=29543 fps= 85 q=-0.0 size=N/A time=00:20:32.18 bitrate=N/A speed=3.57x    frame=29586 fps= 85 q=-0.0 size=N/A time=00:20:33.98 bitrate=N/A speed=3.56x    frame=29631 fps= 85 q=-0.0 size=N/A time=00:20:35.85 bitrate=N/A speed=3.57x    frame=29676 fps= 85 q=-0.0 size=N/A time=00:20:37.73 bitrate=N/A speed=3.57x    frame=29718 fps= 85 q=-0.0 size=N/A time=00:20:39.48 bitrate=N/A speed=3.57x    frame=29766 fps= 85 q=-0.0 size=N/A time=00:20:41.49 bitrate=N/A speed=3.57x    frame=29811 fps= 85 q=-0.0 size=N/A time=00:20:43.36 bitrate=N/A speed=3.57x    frame=29854 fps= 85 q=-0.0 size=N/A time=00:20:45.16 bitrate=N/A speed=3.57x    frame=29898 fps= 85 q=-0.0 size=N/A time=00:20:46.99 bitrate=N/A speed=3.57x    frame=29940 fps= 85 q=-0.0 size=N/A time=00:20:48.74 bitrate=N/A speed=3.57x    frame=29986 fps= 85 q=-0.0 size=N/A time=00:20:50.66 bitrate=N/A speed=3.57x    frame=30030 fps= 85 q=-0.0 size=N/A time=00:20:52.50 bitrate=N/A speed=3.57x    frame=30072 fps= 85 q=-0.0 size=N/A time=00:20:54.25 bitrate=N/A speed=3.57x    frame=30114 fps= 85 q=-0.0 size=N/A time=00:20:56.00 bitrate=N/A speed=3.56x    frame=30161 fps= 85 q=-0.0 size=N/A time=00:20:57.96 bitrate=N/A speed=3.57x    frame=30205 fps= 85 q=-0.0 size=N/A time=00:20:59.80 bitrate=N/A speed=3.57x    frame=30251 fps= 85 q=-0.0 size=N/A time=00:21:01.71 bitrate=N/A speed=3.57x    frame=30291 fps= 85 q=-0.0 size=N/A time=00:21:03.38 bitrate=N/A speed=3.56x    frame=30329 fps= 85 q=-0.0 size=N/A time=00:21:04.97 bitrate=N/A speed=3.56x    frame=30372 fps= 85 q=-0.0 size=N/A time=00:21:06.76 bitrate=N/A speed=3.56x    frame=30412 fps= 85 q=-0.0 size=N/A time=00:21:08.43 bitrate=N/A speed=3.56x    frame=30451 fps= 85 q=-0.0 size=N/A time=00:21:10.06 bitrate=N/A speed=3.56x    frame=30495 fps= 85 q=-0.0 size=N/A time=00:21:11.89 bitrate=N/A speed=3.56x    frame=30537 fps= 85 q=-0.0 size=N/A time=00:21:13.64 bitrate=N/A speed=3.56x    frame=30583 fps= 85 q=-0.0 size=N/A time=00:21:15.56 bitrate=N/A speed=3.56x    frame=30628 fps= 85 q=-0.0 size=N/A time=00:21:17.44 bitrate=N/A speed=3.56x    frame=30669 fps= 85 q=-0.0 size=N/A time=00:21:19.15 bitrate=N/A speed=3.56x    frame=30709 fps= 85 q=-0.0 size=N/A time=00:21:20.82 bitrate=N/A speed=3.56x    frame=30752 fps= 85 q=-0.0 size=N/A time=00:21:22.61 bitrate=N/A speed=3.56x    frame=30795 fps= 85 q=-0.0 size=N/A time=00:21:24.40 bitrate=N/A speed=3.56x    frame=30840 fps= 85 q=-0.0 size=N/A time=00:21:26.28 bitrate=N/A speed=3.56x    frame=30885 fps= 85 q=-0.0 size=N/A time=00:21:28.16 bitrate=N/A speed=3.56x    frame=30929 fps= 85 q=-0.0 size=N/A time=00:21:29.99 bitrate=N/A speed=3.56x    frame=30973 fps= 85 q=-0.0 size=N/A time=00:21:31.83 bitrate=N/A speed=3.56x    frame=31016 fps= 85 q=-0.0 size=N/A time=00:21:33.62 bitrate=N/A speed=3.56x    frame=31062 fps= 85 q=-0.0 size=N/A time=00:21:35.54 bitrate=N/A speed=3.56x    frame=31102 fps= 85 q=-0.0 size=N/A time=00:21:37.21 bitrate=N/A speed=3.56x    frame=31145 fps= 85 q=-0.0 size=N/A time=00:21:39.00 bitrate=N/A speed=3.56x    frame=31190 fps= 85 q=-0.0 size=N/A time=00:21:40.88 bitrate=N/A speed=3.56x    frame=31232 fps= 85 q=-0.0 size=N/A time=00:21:42.63 bitrate=N/A speed=3.56x    frame=31275 fps= 85 q=-0.0 size=N/A time=00:21:44.42 bitrate=N/A speed=3.56x    frame=31321 fps= 85 q=-0.0 size=N/A time=00:21:46.34 bitrate=N/A speed=3.56x    frame=31363 fps= 85 q=-0.0 size=N/A time=00:21:48.09 bitrate=N/A speed=3.56x    frame=31407 fps= 85 q=-0.0 size=N/A time=00:21:49.93 bitrate=N/A speed=3.56x    frame=31449 fps= 85 q=-0.0 size=N/A time=00:21:51.68 bitrate=N/A speed=3.56x    frame=31492 fps= 85 q=-0.0 size=N/A time=00:21:53.47 bitrate=N/A speed=3.56x    frame=31537 fps= 85 q=-0.0 size=N/A time=00:21:55.35 bitrate=N/A speed=3.56x    frame=31579 fps= 85 q=-0.0 size=N/A time=00:21:57.10 bitrate=N/A speed=3.56x    frame=31623 fps= 85 q=-0.0 size=N/A time=00:21:58.94 bitrate=N/A speed=3.56x    frame=31668 fps= 85 q=-0.0 size=N/A time=00:22:00.81 bitrate=N/A speed=3.56x    frame=31711 fps= 85 q=-0.0 size=N/A time=00:22:02.61 bitrate=N/A speed=3.56x    frame=31752 fps= 85 q=-0.0 size=N/A time=00:22:04.32 bitrate=N/A speed=3.56x    frame=31795 fps= 85 q=-0.0 size=N/A time=00:22:06.11 bitrate=N/A speed=3.56x    frame=31834 fps= 85 q=-0.0 size=N/A time=00:22:07.74 bitrate=N/A speed=3.56x    frame=31876 fps= 85 q=-0.0 size=N/A time=00:22:09.49 bitrate=N/A speed=3.56x    frame=31918 fps= 85 q=-0.0 size=N/A time=00:22:11.24 bitrate=N/A speed=3.56x    frame=31959 fps= 85 q=-0.0 size=N/A time=00:22:12.95 bitrate=N/A speed=3.56x    frame=31999 fps= 85 q=-0.0 size=N/A time=00:22:14.62 bitrate=N/A speed=3.56x    frame=32041 fps= 85 q=-0.0 size=N/A time=00:22:16.37 bitrate=N/A speed=3.56x    frame=32083 fps= 85 q=-0.0 size=N/A time=00:22:18.12 bitrate=N/A speed=3.56x    frame=32124 fps= 85 q=-0.0 size=N/A time=00:22:19.83 bitrate=N/A speed=3.56x    frame=32166 fps= 85 q=-0.0 size=N/A time=00:22:21.59 bitrate=N/A speed=3.56x    frame=32211 fps= 85 q=-0.0 size=N/A time=00:22:23.46 bitrate=N/A speed=3.56x    frame=32256 fps= 85 q=-0.0 size=N/A time=00:22:25.34 bitrate=N/A speed=3.56x    frame=32300 fps= 85 q=-0.0 size=N/A time=00:22:27.17 bitrate=N/A speed=3.56x    frame=32342 fps= 85 q=-0.0 size=N/A time=00:22:28.93 bitrate=N/A speed=3.56x    frame=32386 fps= 85 q=-0.0 size=N/A time=00:22:30.76 bitrate=N/A speed=3.56x    frame=32428 fps= 85 q=-0.0 size=N/A time=00:22:32.51 bitrate=N/A speed=3.56x    frame=32470 fps= 85 q=-0.0 size=N/A time=00:22:34.26 bitrate=N/A speed=3.56x    frame=32515 fps= 85 q=-0.0 size=N/A time=00:22:36.14 bitrate=N/A speed=3.56x    frame=32558 fps= 85 q=-0.0 size=N/A time=00:22:37.93 bitrate=N/A speed=3.56x    frame=32602 fps= 85 q=-0.0 size=N/A time=00:22:39.77 bitrate=N/A speed=3.56x    frame=32645 fps= 85 q=-0.0 size=N/A time=00:22:41.56 bitrate=N/A speed=3.56x    frame=32688 fps= 85 q=-0.0 size=N/A time=00:22:43.36 bitrate=N/A speed=3.56x    frame=32733 fps= 85 q=-0.0 size=N/A time=00:22:45.23 bitrate=N/A speed=3.56x    frame=32773 fps= 85 q=-0.0 size=N/A time=00:22:46.90 bitrate=N/A speed=3.56x    frame=32814 fps= 85 q=-0.0 size=N/A time=00:22:48.61 bitrate=N/A speed=3.56x    frame=32857 fps= 85 q=-0.0 size=N/A time=00:22:50.41 bitrate=N/A speed=3.56x    frame=32899 fps= 85 q=-0.0 size=N/A time=00:22:52.16 bitrate=N/A speed=3.56x    frame=32943 fps= 85 q=-0.0 size=N/A time=00:22:53.99 bitrate=N/A speed=3.56x    frame=32986 fps= 85 q=-0.0 size=N/A time=00:22:55.79 bitrate=N/A speed=3.56x    frame=33030 fps= 85 q=-0.0 size=N/A time=00:22:57.62 bitrate=N/A speed=3.56x    frame=33074 fps= 85 q=-0.0 size=N/A time=00:22:59.46 bitrate=N/A speed=3.56x    frame=33115 fps= 85 q=-0.0 size=N/A time=00:23:01.17 bitrate=N/A speed=3.56x    frame=33159 fps= 85 q=-0.0 size=N/A time=00:23:03.00 bitrate=N/A speed=3.56x    frame=33202 fps= 85 q=-0.0 size=N/A time=00:23:04.80 bitrate=N/A speed=3.56x    frame=33247 fps= 85 q=-0.0 size=N/A time=00:23:06.67 bitrate=N/A speed=3.56x    frame=33290 fps= 85 q=-0.0 size=N/A time=00:23:08.47 bitrate=N/A speed=3.56x    frame=33335 fps= 85 q=-0.0 size=N/A time=00:23:10.34 bitrate=N/A speed=3.56x    frame=33377 fps= 85 q=-0.0 size=N/A time=00:23:12.09 bitrate=N/A speed=3.56x    frame=33419 fps= 85 q=-0.0 size=N/A time=00:23:13.85 bitrate=N/A speed=3.56x    frame=33461 fps= 85 q=-0.0 size=N/A time=00:23:15.60 bitrate=N/A speed=3.55x    frame=33504 fps= 85 q=-0.0 size=N/A time=00:23:17.39 bitrate=N/A speed=3.55x    frame=33545 fps= 85 q=-0.0 size=N/A time=00:23:19.10 bitrate=N/A speed=3.55x    frame=33590 fps= 85 q=-0.0 size=N/A time=00:23:20.98 bitrate=N/A speed=3.55x    frame=33632 fps= 85 q=-0.0 size=N/A time=00:23:22.73 bitrate=N/A speed=3.55x    frame=33676 fps= 85 q=-0.0 size=N/A time=00:23:24.56 bitrate=N/A speed=3.55x    frame=33719 fps= 85 q=-0.0 size=N/A time=00:23:26.36 bitrate=N/A speed=3.55x    frame=33764 fps= 85 q=-0.0 size=N/A time=00:23:28.24 bitrate=N/A speed=3.55x    frame=33808 fps= 85 q=-0.0 size=N/A time=00:23:30.07 bitrate=N/A speed=3.55x    frame=33849 fps= 85 q=-0.0 size=N/A time=00:23:31.78 bitrate=N/A speed=3.55x    frame=33890 fps= 85 q=-0.0 size=N/A time=00:23:33.49 bitrate=N/A speed=3.55x    frame=33935 fps= 85 q=-0.0 size=N/A time=00:23:35.37 bitrate=N/A speed=3.55x    frame=33978 fps= 85 q=-0.0 size=N/A time=00:23:37.16 bitrate=N/A speed=3.55x    frame=34023 fps= 85 q=-0.0 size=N/A time=00:23:39.04 bitrate=N/A speed=3.55x    frame=34070 fps= 85 q=-0.0 size=N/A time=00:23:41.00 bitrate=N/A speed=3.55x    frame=34112 fps= 85 q=-0.0 size=N/A time=00:23:42.75 bitrate=N/A speed=3.55x    frame=34156 fps= 85 q=-0.0 size=N/A time=00:23:44.58 bitrate=N/A speed=3.55x    frame=34201 fps= 85 q=-0.0 size=N/A time=00:23:46.46 bitrate=N/A speed=3.55x    frame=34244 fps= 85 q=-0.0 size=N/A time=00:23:48.26 bitrate=N/A speed=3.55x    frame=34287 fps= 85 q=-0.0 size=N/A time=00:23:50.05 bitrate=N/A speed=3.55x    frame=34330 fps= 85 q=-0.0 size=N/A time=00:23:51.84 bitrate=N/A speed=3.55x    frame=34375 fps= 85 q=-0.0 size=N/A time=00:23:53.72 bitrate=N/A speed=3.55x    frame=34421 fps= 85 q=-0.0 size=N/A time=00:23:55.64 bitrate=N/A speed=3.55x    frame=34464 fps= 85 q=-0.0 size=N/A time=00:23:57.43 bitrate=N/A speed=3.55x    frame=34505 fps= 85 q=-0.0 size=N/A time=00:23:59.14 bitrate=N/A speed=3.55x    frame=34547 fps= 85 q=-0.0 size=N/A time=00:24:00.89 bitrate=N/A speed=3.55x    frame=34591 fps= 85 q=-0.0 size=N/A time=00:24:02.73 bitrate=N/A speed=3.55x    frame=34634 fps= 85 q=-0.0 size=N/A time=00:24:04.52 bitrate=N/A speed=3.55x    frame=34677 fps= 85 q=-0.0 size=N/A time=00:24:06.31 bitrate=N/A speed=3.55x    frame=34722 fps= 85 q=-0.0 size=N/A time=00:24:08.19 bitrate=N/A speed=3.55x    frame=34765 fps= 85 q=-0.0 size=N/A time=00:24:09.99 bitrate=N/A speed=3.55x    frame=34807 fps= 85 q=-0.0 size=N/A time=00:24:11.74 bitrate=N/A speed=3.55x    frame=34852 fps= 85 q=-0.0 size=N/A time=00:24:13.61 bitrate=N/A speed=3.55x    frame=34897 fps= 85 q=-0.0 size=N/A time=00:24:15.49 bitrate=N/A speed=3.55x    frame=34941 fps= 85 q=-0.0 size=N/A time=00:24:17.33 bitrate=N/A speed=3.55x    frame=34985 fps= 85 q=-0.0 size=N/A time=00:24:19.16 bitrate=N/A speed=3.55x    frame=35025 fps= 85 q=-0.0 size=N/A time=00:24:20.83 bitrate=N/A speed=3.55x    frame=35067 fps= 85 q=-0.0 size=N/A time=00:24:22.58 bitrate=N/A speed=3.55x    frame=35109 fps= 85 q=-0.0 size=N/A time=00:24:24.33 bitrate=N/A speed=3.55x    frame=35155 fps= 85 q=-0.0 size=N/A time=00:24:26.25 bitrate=N/A speed=3.55x    frame=35199 fps= 85 q=-0.0 size=N/A time=00:24:28.09 bitrate=N/A speed=3.55x    frame=35242 fps= 85 q=-0.0 size=N/A time=00:24:29.88 bitrate=N/A speed=3.55x    frame=35289 fps= 85 q=-0.0 size=N/A time=00:24:31.84 bitrate=N/A speed=3.55x    frame=35332 fps= 85 q=-0.0 size=N/A time=00:24:33.63 bitrate=N/A speed=3.55x    frame=35375 fps= 85 q=-0.0 size=N/A time=00:24:35.43 bitrate=N/A speed=3.55x    frame=35422 fps= 85 q=-0.0 size=N/A time=00:24:37.39 bitrate=N/A speed=3.55x    frame=35467 fps= 85 q=-0.0 size=N/A time=00:24:39.26 bitrate=N/A speed=3.55x    frame=35510 fps= 85 q=-0.0 size=N/A time=00:24:41.06 bitrate=N/A speed=3.55x    frame=35555 fps= 85 q=-0.0 size=N/A time=00:24:42.93 bitrate=N/A speed=3.55x    frame=35598 fps= 85 q=-0.0 size=N/A time=00:24:44.73 bitrate=N/A speed=3.55x    [Parsed_libvmaf_10 @ 0000027408f31c00] VMAF score: 95.420454
[out#0/null @ 000002747beba280] video:15314KiB audio:278756KiB subtitle:0KiB other streams:0KiB global headers:0KiB muxing overhead: unknown
frame=35639 fps= 85 q=-0.0 Lsize=N/A time=00:24:46.44 bitrate=N/A speed=3.54x    
